<?xml version="1.0" encoding="UTF-8" standalone="no"?><svg xmlns:dc="http://purl.org/dc/elements/1.1/" xmlns:cc="http://creativecommons.org/ns#" xmlns:rdf="http://www.w3.org/1999/02/22-rdf-syntax-ns#" xmlns:svg="http://www.w3.org/2000/svg" xmlns="http://www.w3.org/2000/svg" xml:space="preserve" id="svg2" version="1.1" viewBox="0 0 793.70667 1122.52"><metadata id="metadata8"><rdf:RDF><cc:Work rdf:about=""><dc:format>image/svg+xml</dc:format><dc:type rdf:resource="http://purl.org/dc/dcmitype/StillImage"/></cc:Work></rdf:RDF></metadata><defs id="defs6"/><g transform="matrix(1.3333333,0,0,-1.3333333,0,1122.52)" id="g10"><g transform="scale(0.12)" id="g12"><path id="path14" style="fill:none;stroke:#000000;stroke-width:6;stroke-linecap:round;stroke-linejoin:round;stroke-miterlimit:10;stroke-dasharray:none;stroke-opacity:1" d="m 1211,5777.33 h 2 l 4,-2 2,-2 2,-4 v -8 l -2,-4 -2,-2 -4,-2 h -4 l -4,2 -6,4 -20,20 v -28"/><path id="path16" style="fill:none;stroke:#000000;stroke-width:6;stroke-linecap:round;stroke-linejoin:round;stroke-miterlimit:10;stroke-dasharray:none;stroke-opacity:1" d="M 3162,3853.33 H 2285"/><path id="path18" style="fill:none;stroke:#000000;stroke-width:6;stroke-linecap:round;stroke-linejoin:round;stroke-miterlimit:10;stroke-dasharray:none;stroke-opacity:1" d="M 3157,3496.33 H 2285"/><path id="path20" style="fill:none;stroke:#000000;stroke-width:6;stroke-linecap:round;stroke-linejoin:round;stroke-miterlimit:10;stroke-dasharray:none;stroke-opacity:1" d="m 2311,3797.33 v -245"/><path id="path22" style="fill:#000000;fill-opacity:1;fill-rule:evenodd;stroke:none" d="m 2320,3797.33 h -19 l 10,56"/><path id="path24" style="fill:#000000;fill-opacity:1;fill-rule:evenodd;stroke:none" d="m 2301,3552.33 h 19 l -9,-56"/><path id="path26" style="fill:none;stroke:#000000;stroke-width:6;stroke-linecap:round;stroke-linejoin:round;stroke-miterlimit:10;stroke-dasharray:none;stroke-opacity:1" d="m 2371,3729.33 2,-4 7,-7 h -46"/><path id="path28" style="fill:none;stroke:#000000;stroke-width:6;stroke-linecap:round;stroke-linejoin:round;stroke-miterlimit:10;stroke-dasharray:none;stroke-opacity:1" d="m 2380,3673.33 -31,21 v -32"/><path id="path30" style="fill:none;stroke:#000000;stroke-width:6;stroke-linecap:round;stroke-linejoin:round;stroke-miterlimit:10;stroke-dasharray:none;stroke-opacity:1" d="m 2380,3673.33 h -46"/><path id="path32" style="fill:none;stroke:#000000;stroke-width:6;stroke-linecap:round;stroke-linejoin:round;stroke-miterlimit:10;stroke-dasharray:none;stroke-opacity:1" d="m 2380,3638.33 -3,6 -6,5 -11,2 h -7 l -11,-2 -6,-5 -2,-6 v -5 l 2,-6 6,-5 11,-2 h 7 l 11,2 6,5 3,6 v 5"/><path id="path34" style="fill:none;stroke:#000000;stroke-width:6;stroke-linecap:round;stroke-linejoin:round;stroke-miterlimit:10;stroke-dasharray:none;stroke-opacity:1" d="M 3162,3853.33 H 2803"/><path id="path36" style="fill:none;stroke:#000000;stroke-width:6;stroke-linecap:round;stroke-linejoin:round;stroke-miterlimit:10;stroke-dasharray:none;stroke-opacity:1" d="M 3245,3547.33 H 2803"/><path id="path38" style="fill:none;stroke:#000000;stroke-width:6;stroke-linecap:round;stroke-linejoin:round;stroke-miterlimit:10;stroke-dasharray:none;stroke-opacity:1" d="m 2828,3797.33 v -194"/><path id="path40" style="fill:#000000;fill-opacity:1;fill-rule:evenodd;stroke:none" d="m 2837,3797.33 h -18 l 9,56"/><path id="path42" style="fill:#000000;fill-opacity:1;fill-rule:evenodd;stroke:none" d="m 2819,3603.33 h 18 l -9,-56"/><path id="path44" style="fill:none;stroke:#000000;stroke-width:6;stroke-linecap:round;stroke-linejoin:round;stroke-miterlimit:10;stroke-dasharray:none;stroke-opacity:1" d="m 2888,3755.33 2,-5 7,-6 h -46"/><path id="path46" style="fill:none;stroke:#000000;stroke-width:6;stroke-linecap:round;stroke-linejoin:round;stroke-miterlimit:10;stroke-dasharray:none;stroke-opacity:1" d="m 2886,3718.33 h 2 l 4,-2 3,-3 2,-4 v -9 l -2,-4 -3,-2 -4,-3 h -4 l -5,3 -6,4 -22,22 v -31"/><path id="path48" style="fill:none;stroke:#000000;stroke-width:6;stroke-linecap:round;stroke-linejoin:round;stroke-miterlimit:10;stroke-dasharray:none;stroke-opacity:1" d="m 2897,3663.33 -2,7 -7,4 -11,2 h -6 l -11,-2 -7,-4 -2,-7 v -4 l 2,-7 7,-4 11,-2 h 6 l 11,2 7,4 2,7 v 4"/><path id="path50" style="fill:none;stroke:#000000;stroke-width:6;stroke-linecap:round;stroke-linejoin:round;stroke-miterlimit:10;stroke-dasharray:none;stroke-opacity:1" d="M 3343,3853.33 H 3177"/><path id="path52" style="fill:none;stroke:#000000;stroke-width:6;stroke-linecap:round;stroke-linejoin:round;stroke-miterlimit:10;stroke-dasharray:none;stroke-opacity:1" d="m 3343,3853.33 v -357"/><path id="path54" style="fill:none;stroke:#000000;stroke-width:6;stroke-linecap:round;stroke-linejoin:round;stroke-miterlimit:10;stroke-dasharray:none;stroke-opacity:1" d="m 3177,3853.33 v -357"/><path id="path56" style="fill:none;stroke:#000000;stroke-width:6;stroke-linecap:round;stroke-linejoin:round;stroke-miterlimit:10;stroke-dasharray:none;stroke-opacity:1" d="m 3283,3853.33 v -283"/><path id="path58" style="fill:none;stroke:#000000;stroke-width:6;stroke-linecap:round;stroke-linejoin:round;stroke-miterlimit:10;stroke-dasharray:none;stroke-opacity:1" d="m 3237,3853.33 v -283"/><path id="path60" style="fill:none;stroke:#000000;stroke-width:6;stroke-linecap:round;stroke-linejoin:round;stroke-miterlimit:10;stroke-dasharray:none;stroke-opacity:1" d="m 3237,3570.33 v -3 l 1,-3 1,-2 1,-3 2,-3 2,-2 2,-2 2,-2 3,-1 3,-1 h 3 l 3,-1 3,1 h 3 l 3,1 2,1 3,2 2,2 2,2 2,3 1,3 1,2 1,3 v 3"/><path id="path62" style="fill:none;stroke:#000000;stroke-width:6;stroke-linecap:round;stroke-linejoin:round;stroke-miterlimit:10;stroke-dasharray:none;stroke-opacity:1" d="m 3343,3838.33 v -186"/><path id="path64" style="fill:none;stroke:#000000;stroke-width:6;stroke-linecap:round;stroke-linejoin:round;stroke-miterlimit:10;stroke-dasharray:none;stroke-opacity:1" d="m 3177,3838.33 v -186"/><path id="path66" style="fill:none;stroke:#000000;stroke-width:6;stroke-linecap:round;stroke-linejoin:round;stroke-miterlimit:10;stroke-dasharray:none;stroke-opacity:1" d="m 3343,3677.33 h 217"/><path id="path68" style="fill:none;stroke:#000000;stroke-width:6;stroke-linecap:round;stroke-linejoin:round;stroke-miterlimit:10;stroke-dasharray:none;stroke-opacity:1" d="m 3287,3677.33 h -54"/><path id="path70" style="fill:#000000;fill-opacity:1;fill-rule:evenodd;stroke:none" d="m 3287,3668.33 v 19 l 56,-10"/><path id="path72" style="fill:#000000;fill-opacity:1;fill-rule:evenodd;stroke:none" d="m 3233,3687.33 v -19 l -56,9"/><path id="path74" style="fill:none;stroke:#000000;stroke-width:6;stroke-linecap:round;stroke-linejoin:round;stroke-miterlimit:10;stroke-dasharray:none;stroke-opacity:1" d="m 3433,3737.33 -5,-2 -4,-4 -2,-7 v -4 l 2,-7 4,-4 5,-2 h 6 l 4,2 5,4 2,7 v 4 l -2,7 -5,4 -4,2 h -6"/><path id="path76" style="fill:none;stroke:#000000;stroke-width:6;stroke-linecap:round;stroke-linejoin:round;stroke-miterlimit:10;stroke-dasharray:none;stroke-opacity:1" d="m 3446,3744.33 -20,-44"/><path id="path78" style="fill:none;stroke:#000000;stroke-width:6;stroke-linecap:round;stroke-linejoin:round;stroke-miterlimit:10;stroke-dasharray:none;stroke-opacity:1" d="m 3489,3740.33 -2,4 -6,2 h -5 l -6,-2 -5,-7 -2,-11 v -10 l 2,-9 5,-5 6,-2 h 2 l 7,2 4,5 3,6 v 3 l -3,6 -4,4 -7,3 h -2 l -6,-3 -5,-4 -2,-6"/><path id="path80" style="fill:none;stroke:#000000;stroke-width:6;stroke-linecap:round;stroke-linejoin:round;stroke-miterlimit:10;stroke-dasharray:none;stroke-opacity:1" d="m 3520,3746.33 -7,-2 -4,-7 -2,-11 v -6 l 2,-11 4,-7 7,-2 h 4 l 7,2 4,7 2,11 v 6 l -2,11 -4,7 -7,2 h -4"/><path id="path82" style="fill:none;stroke:#000000;stroke-width:6;stroke-linecap:round;stroke-linejoin:round;stroke-miterlimit:10;stroke-dasharray:none;stroke-opacity:1" d="m 3528,3760.33 v 19"/><path id="path84" style="fill:none;stroke:#000000;stroke-width:6;stroke-linecap:round;stroke-linejoin:round;stroke-miterlimit:10;stroke-dasharray:none;stroke-opacity:1" d="m 3528,3774.33 4,4 2,1 h 4 l 3,-1 1,-4 v -14"/><path id="path86" style="fill:none;stroke:#000000;stroke-width:6;stroke-linecap:round;stroke-linejoin:round;stroke-miterlimit:10;stroke-dasharray:none;stroke-opacity:1" d="m 3542,3774.33 4,4 3,1 h 4 l 2,-1 2,-4 v -14"/><path id="path88" style="fill:none;stroke:#000000;stroke-width:6;stroke-linecap:round;stroke-linejoin:round;stroke-miterlimit:10;stroke-dasharray:none;stroke-opacity:1" d="m 3583,3784.33 -1,3 -4,1 h -3 l -4,-1 -2,-4 -2,-7 v -6 l 2,-6 2,-2 4,-2 h 1 l 4,2 3,2 1,4 v 2 l -1,4 -3,2 -4,2 h -1 l -4,-2 -2,-2 -2,-4"/><path id="path90" style="fill:none;stroke:#000000;stroke-width:6;stroke-linecap:round;stroke-linejoin:round;stroke-miterlimit:10;stroke-dasharray:none;stroke-opacity:1" d="m 1193,4487.33 v 7 l -1,3 -2,3 -1,2 -2,3 -3,2 -2,2 -3,1 -3,2 h -3 l -3,1 h -6 l -3,-1 -3,-1 -3,-2 -3,-1 -2,-3 -2,-2 -2,-3 -2,-2 -1,-3 v -3 l -1,-4 v -3 l 1,-3 1,-3 1,-3 1,-2 2,-3 3,-2 2,-2 3,-2 3,-1 3,-1 3,-1 h 3"/><path id="path92" style="fill:none;stroke:#000000;stroke-width:6;stroke-linecap:round;stroke-linejoin:round;stroke-miterlimit:10;stroke-dasharray:none;stroke-opacity:1" d="m 1168,4465.33 h 6 l 3,1 2,2 3,1 2,2 2,2 2,3 1,3 1,3 1,2 v 6 l -1,3 -1,3 -1,3 -2,2 -2,3 -2,2 -3,1 -2,2 -3,1 h -12 l -3,-1 -3,-2 -2,-1 -2,-2 -2,-3 -2,-2 -1,-3 -1,-3 -1,-3 v -6 l 1,-2 1,-3 1,-3 2,-3 2,-2 2,-2 2,-1 3,-2 3,-1 h 6"/><path id="path94" style="fill:none;stroke:#000000;stroke-width:6;stroke-linecap:round;stroke-linejoin:round;stroke-miterlimit:10;stroke-dasharray:none;stroke-opacity:1" d="m 1145,4422.33 h 46"/><path id="path96" style="fill:none;stroke:#000000;stroke-width:6;stroke-linecap:round;stroke-linejoin:round;stroke-miterlimit:10;stroke-dasharray:none;stroke-opacity:1" d="m 1145,4394.33 h 46"/><path id="path98" style="fill:none;stroke:#000000;stroke-width:6;stroke-linecap:round;stroke-linejoin:round;stroke-miterlimit:10;stroke-dasharray:none;stroke-opacity:1" d="m 1145,4422.33 v -28"/><path id="path100" style="fill:none;stroke:#000000;stroke-width:6;stroke-linecap:round;stroke-linejoin:round;stroke-miterlimit:10;stroke-dasharray:none;stroke-opacity:1" d="m 1191,4422.33 v -28"/><path id="path102" style="fill:none;stroke:#000000;stroke-width:6;stroke-linecap:round;stroke-linejoin:round;stroke-miterlimit:10;stroke-dasharray:none;stroke-opacity:1" d="m 1191,4408.33 5,2 5,2 5,2 5,3 5,3 4,4 5,3 4,4 3,5 4,4 3,5 3,5 2,5 2,5 2,5 1,6 1,6 v 5 l 1,6 -1,5 v 6 l -1,6 -2,5 -1,5 -2,6 -3,5 -3,5 -3,4 -3,5 -4,4 -4,4 -4,4 -5,3 -4,3 -5,3 -5,2 -6,2 -5,2 -5,2 h -6 l -6,1 h -11 l -5,-1 h -6 l -5,-2 -6,-2 -5,-2 -5,-2 -5,-3 -5,-3 -4,-3 -5,-4 -4,-4 -3,-4 -4,-5 -3,-4 -3,-5 -2,-5 -2,-6 -2,-5 -1,-5 -1,-6 -1,-6 v -11 l 1,-5 1,-6 1,-6 2,-5 2,-5 2,-5 3,-5 3,-5 3,-4 4,-5 4,-4 4,-3 5,-4 4,-3 5,-3 5,-2 6,-2 5,-2"/><path id="path104" style="fill:none;stroke:#000000;stroke-width:6;stroke-linecap:round;stroke-linejoin:round;stroke-miterlimit:10;stroke-dasharray:none;stroke-opacity:1" d="m 1168,4643.33 v -79"/><path id="path106" style="fill:none;stroke:#000000;stroke-width:6;stroke-linecap:round;stroke-linejoin:round;stroke-miterlimit:10;stroke-dasharray:none;stroke-opacity:1" d="m 1168,4551.33 v -13"/><path id="path108" style="fill:none;stroke:#000000;stroke-width:6;stroke-linecap:round;stroke-linejoin:round;stroke-miterlimit:10;stroke-dasharray:none;stroke-opacity:1" d="m 1168,4526.33 v -77"/><path id="path110" style="fill:none;stroke:#000000;stroke-width:6;stroke-linecap:round;stroke-linejoin:round;stroke-miterlimit:10;stroke-dasharray:none;stroke-opacity:1" d="m 1168,4436.33 v -12"/><path id="path112" style="fill:none;stroke:#000000;stroke-width:6;stroke-linecap:round;stroke-linejoin:round;stroke-miterlimit:10;stroke-dasharray:none;stroke-opacity:1" d="m 1168,4411.33 v -79"/><path id="path114" style="fill:none;stroke:#000000;stroke-width:6;stroke-linecap:round;stroke-linejoin:round;stroke-miterlimit:10;stroke-dasharray:none;stroke-opacity:1" d="m 1297,4487.33 h -53"/><path id="path116" style="fill:none;stroke:#000000;stroke-width:6;stroke-linecap:round;stroke-linejoin:round;stroke-miterlimit:10;stroke-dasharray:none;stroke-opacity:1" d="m 1232,4487.33 h -13"/><path id="path118" style="fill:none;stroke:#000000;stroke-width:6;stroke-linecap:round;stroke-linejoin:round;stroke-miterlimit:10;stroke-dasharray:none;stroke-opacity:1" d="m 1206,4487.33 h -76"/><path id="path120" style="fill:none;stroke:#000000;stroke-width:6;stroke-linecap:round;stroke-linejoin:round;stroke-miterlimit:10;stroke-dasharray:none;stroke-opacity:1" d="m 1117,4487.33 h -13"/><path id="path122" style="fill:none;stroke:#000000;stroke-width:6;stroke-linecap:round;stroke-linejoin:round;stroke-miterlimit:10;stroke-dasharray:none;stroke-opacity:1" d="m 1091,4487.33 h -52"/><path id="path124" style="fill:none;stroke:#000000;stroke-width:6;stroke-linecap:round;stroke-linejoin:round;stroke-miterlimit:10;stroke-dasharray:none;stroke-opacity:1" d="m 1182,4570.33 h 196"/><path id="path126" style="fill:none;stroke:#000000;stroke-width:6;stroke-linecap:round;stroke-linejoin:round;stroke-miterlimit:10;stroke-dasharray:none;stroke-opacity:1" d="m 1205,4422.33 h 173"/><path id="path128" style="fill:none;stroke:#000000;stroke-width:6;stroke-linecap:round;stroke-linejoin:round;stroke-miterlimit:10;stroke-dasharray:none;stroke-opacity:1" d="m 1356,4520.33 v -47"/><path id="path130" style="fill:#000000;fill-opacity:1;fill-rule:evenodd;stroke:none" d="m 1364,4520.33 h -17 l 9,50"/><path id="path132" style="fill:#000000;fill-opacity:1;fill-rule:evenodd;stroke:none" d="m 1347,4473.33 h 17 l -8,-51"/><path id="path134" style="fill:none;stroke:#000000;stroke-width:6;stroke-linecap:round;stroke-linejoin:round;stroke-miterlimit:10;stroke-dasharray:none;stroke-opacity:1" d="m 1417,4508.33 v 19 l -17,2 2,-2 2,-6 v -6 l -2,-5 -4,-4 -6,-2 h -4 l -6,2 -4,4 -2,5 v 6 l 2,6 2,2 4,2"/><path id="path136" style="fill:none;stroke:#000000;stroke-width:6;stroke-linecap:round;stroke-linejoin:round;stroke-miterlimit:10;stroke-dasharray:none;stroke-opacity:1" d="m 1417,4488.33 v -22 l -15,12 v -6 l -2,-4 -2,-2 -6,-2 h -4 l -6,2 -4,4 -2,6 v 6 l 2,6 2,2 4,2"/><path id="path138" style="fill:none;stroke:#000000;stroke-width:6;stroke-linecap:round;stroke-linejoin:round;stroke-miterlimit:10;stroke-dasharray:none;stroke-opacity:1" d="m 1178,4570.33 h 319"/><path id="path140" style="fill:none;stroke:#000000;stroke-width:6;stroke-linecap:round;stroke-linejoin:round;stroke-miterlimit:10;stroke-dasharray:none;stroke-opacity:1" d="m 1205,4394.33 h 292"/><path id="path142" style="fill:none;stroke:#000000;stroke-width:6;stroke-linecap:round;stroke-linejoin:round;stroke-miterlimit:10;stroke-dasharray:none;stroke-opacity:1" d="m 1474,4520.33 v -75"/><path id="path144" style="fill:#000000;fill-opacity:1;fill-rule:evenodd;stroke:none" d="m 1482,4520.33 h -16 l 8,50"/><path id="path146" style="fill:#000000;fill-opacity:1;fill-rule:evenodd;stroke:none" d="m 1466,4445.33 h 16 l -8,-51"/><path id="path148" style="fill:none;stroke:#000000;stroke-width:6;stroke-linecap:round;stroke-linejoin:round;stroke-miterlimit:10;stroke-dasharray:none;stroke-opacity:1" d="m 1530,4487.33 4,2 2,6 v 4 l -2,6 -6,4 -10,2 h -10 l -7,-2 -4,-4 -2,-6 v -2 l 2,-6 4,-4 5,-2 h 2 l 6,2 4,4 2,6 v 2 l -2,6 -4,4 -6,2"/><path id="path150" style="fill:none;stroke:#000000;stroke-width:6;stroke-linecap:round;stroke-linejoin:round;stroke-miterlimit:10;stroke-dasharray:none;stroke-opacity:1" d="m 1536,4452.33 -28,20 v -30"/><path id="path152" style="fill:none;stroke:#000000;stroke-width:6;stroke-linecap:round;stroke-linejoin:round;stroke-miterlimit:10;stroke-dasharray:none;stroke-opacity:1" d="m 1536,4452.33 h -41"/><path id="path154" style="fill:none;stroke:#000000;stroke-width:6;stroke-linecap:round;stroke-linejoin:round;stroke-miterlimit:10;stroke-dasharray:none;stroke-opacity:1" d="m 1145,4381.33 v -114"/><path id="path156" style="fill:none;stroke:#000000;stroke-width:6;stroke-linecap:round;stroke-linejoin:round;stroke-miterlimit:10;stroke-dasharray:none;stroke-opacity:1" d="m 1191,4381.33 v -114"/><path id="path158" style="fill:none;stroke:#000000;stroke-width:6;stroke-linecap:round;stroke-linejoin:round;stroke-miterlimit:10;stroke-dasharray:none;stroke-opacity:1" d="m 1241,4290.33 h 151"/><path id="path160" style="fill:none;stroke:#000000;stroke-width:6;stroke-linecap:round;stroke-linejoin:round;stroke-miterlimit:10;stroke-dasharray:none;stroke-opacity:1" d="m 1145,4290.33 h 46"/><path id="path162" style="fill:none;stroke:#000000;stroke-width:6;stroke-linecap:round;stroke-linejoin:round;stroke-miterlimit:10;stroke-dasharray:none;stroke-opacity:1" d="m 1094,4290.33 h -50"/><path id="path164" style="fill:#000000;fill-opacity:1;fill-rule:evenodd;stroke:none" d="m 1094,4282.33 v 17 l 51,-9"/><path id="path166" style="fill:#000000;fill-opacity:1;fill-rule:evenodd;stroke:none" d="m 1241,4299.33 v -17 l -50,8"/><path id="path168" style="fill:none;stroke:#000000;stroke-width:6;stroke-linecap:round;stroke-linejoin:round;stroke-miterlimit:10;stroke-dasharray:none;stroke-opacity:1" d="m 1312,4344.33 4,2 6,6 v -41"/><path id="path170" style="fill:none;stroke:#000000;stroke-width:6;stroke-linecap:round;stroke-linejoin:round;stroke-miterlimit:10;stroke-dasharray:none;stroke-opacity:1" d="m 1354,4352.33 -6,-2 -2,-4 v -4 l 2,-4 4,-2 7,-2 6,-1 4,-4 2,-4 v -6 l -2,-4 -2,-2 -6,-2 h -7 l -6,2 -2,2 -2,4 v 6 l 2,4 4,4 6,1 7,2 4,2 2,4 v 4 l -2,4 -6,2 h -7"/><path id="path172" style="fill:#000000;fill-opacity:1;fill-rule:evenodd;stroke:none" d="m 929,4767.33 h 1 4 l 2,2 2,3 v 9 l -1,2 -1,2 -2,1 -1,2 -2,1 h -4 l -1,-1 -1,-2 -1,-2 -4,-14 v -1 l -1,-1 -1,-2 -1,-1 h -1 l -2,-1 h -3 -3 l -2,1 -3,1 -3,3 -2,2 -1,3 -2,4 v 3 l -1,4 1,7 3,5 3,3 6,1 v 0 l 2,-1 h 2 v -5 h -2 -3 l -2,-1 -1,-1 -1,-1 -1,-2 -1,-2 v -9 l 1,-3 1,-1 2,-2 1,-2 2,-1 h 4 l 2,1 1,2 1,3 3,12 2,3 2,2 2,1 3,1 h 3 l 2,-1 3,-2 2,-1 2,-3 2,-2 1,-3 1,-4 v -10 l -3,-4 -3,-3 -5,-1 h -1 -2 v 0"/><path id="path174" style="fill:#000000;fill-opacity:1;fill-rule:evenodd;stroke:none" d="m 896,4723.33 v 6 l 21,-5 v 24 l -21,4 v 6 l 47,-10 v -6 l -21,5 v -24 l 21,-4 v -6"/><path id="path176" style="fill:#000000;fill-opacity:1;fill-rule:evenodd;stroke:none" d="m 896,4683.33 14,1 v 18 l -14,8 v 6 l 47,-26 v -8 l -47,-6 z m 39,4 -20,12 v -14"/><path id="path178" style="fill:#000000;fill-opacity:1;fill-rule:evenodd;stroke:none" d="m 937,4629.33 v 25 l -15,4 v -23 l -5,2 v 22 l -21,4 v 6 l 47,-10 v -31"/><path id="path180" style="fill:#000000;fill-opacity:1;fill-rule:evenodd;stroke:none" d="m 937,4589.33 v 15 l -41,9 v 6 l 41,-9 v 16 l 6,-1 v -37"/><path id="path182" style="fill:#000000;fill-opacity:1;fill-rule:evenodd;stroke:none" d="m 937,4532.33 v 27 l -15,3 v -26 l -5,1 v 26 l -16,3 v -27 l -5,1 v 33 l 47,-10 v -32"/><path id="path184" style="fill:#000000;fill-opacity:1;fill-rule:evenodd;stroke:none" d="m 896,4495.33 v 7 l 37,16 -37,8 v 6 l 47,-10 v -7 l -38,-16 38,-8 v -6"/><path id="path186" style="fill:#000000;fill-opacity:1;fill-rule:evenodd;stroke:none" d="m 915,4444.33 -5,2 -4,3 -4,3 -3,3 -2,3 -1,3 v 24 l 47,-10 v -19 l -1,-3 v -2 l -2,-2 -1,-3 -3,-2 -2,-1 -4,-1 h -9 l -1,1 v 0 z m 6,4 h 7 l 3,1 h 2 l 1,2 2,1 v 2 l 1,2 v 14 l -36,7 v -13 l 1,-3 1,-2 1,-2 2,-3 3,-1 3,-2 4,-1 4,-1 v 0"/><path id="path188" style="fill:#000000;fill-opacity:1;fill-rule:evenodd;stroke:none" d="m 915,4380.33 -5,2 -4,3 -4,3 -3,3 -2,3 -1,3 v 24 l 47,-10 v -19 l -1,-3 v -2 l -2,-2 -1,-2 -3,-2 -2,-2 -4,-1 h -9 l -1,1 v 0 z m 6,4 h 7 l 3,1 h 2 l 1,2 2,1 v 2 l 1,2 v 14 l -36,7 v -13 l 1,-3 1,-2 1,-2 2,-3 3,-1 3,-2 4,-1 4,-1 v 0"/><path id="path190" style="fill:#000000;fill-opacity:1;fill-rule:evenodd;stroke:none" d="m 937,4333.33 v 27 l -15,3 v -26 l -5,2 v 25 l -16,3 v -27 l -5,1 v 33 l 47,-9 v -33"/><path id="path192" style="fill:#000000;fill-opacity:1;fill-rule:evenodd;stroke:none" d="m 937,4291.33 v 15 l -41,9 v 6 l 41,-9 v 15 l 6,-1 v -36"/><path id="path194" style="fill:#000000;fill-opacity:1;fill-rule:evenodd;stroke:none" d="m 896,4263.33 14,2 v 18 l -14,8 v 6 l 47,-26 v -8 l -47,-6 z m 39,5 -20,12 v -14"/><path id="path196" style="fill:#000000;fill-opacity:1;fill-rule:evenodd;stroke:none" d="m 896,4243.33 v 6 l 47,-9 v -6"/><path id="path198" style="fill:#000000;fill-opacity:1;fill-rule:evenodd;stroke:none" d="m 896,4204.33 v 29 l 47,-10 v -6 l -42,9 v -23"/><path id="path200" style="fill:#000000;fill-opacity:1;fill-rule:evenodd;stroke:none" d="m 929,4163.33 h 1 4 l 2,2 2,3 v 9 l -1,2 -1,2 -2,2 -1,1 -2,1 h -4 l -1,-1 -1,-2 -1,-2 -4,-14 v -1 l -1,-1 -1,-1 -1,-1 -1,-1 -2,-1 h -3 -3 l -2,1 -3,2 -3,2 -2,2 -1,3 -2,4 v 4 l -1,4 1,6 3,5 3,3 6,1 h 3 l 1,-1 v -5 h -2 -3 l -2,-1 -1,-1 -1,-1 -1,-1 -1,-2 v -10 l 1,-2 1,-2 2,-2 1,-2 h 2 l 3,-1 1,1 2,1 1,1 1,3 3,12 2,3 2,2 2,2 h 3 3 l 2,-1 3,-1 2,-2 2,-3 2,-2 1,-3 1,-3 v -10 l -3,-5 -3,-3 -5,-1 h -1 -2 v 0"/><path id="path202" style="fill:none;stroke:#000000;stroke-width:6;stroke-linecap:round;stroke-linejoin:round;stroke-miterlimit:10;stroke-dasharray:none;stroke-opacity:1" d="m 882,4806.33 v -646"/><path id="path204" style="fill:none;stroke:#000000;stroke-width:6;stroke-linecap:round;stroke-linejoin:round;stroke-miterlimit:10;stroke-dasharray:none;stroke-opacity:1" d="m 1054,4770.33 h 49 l -49,-19 49,-18 h -49"/><path id="path206" style="fill:none;stroke:#000000;stroke-width:6;stroke-linecap:round;stroke-linejoin:round;stroke-miterlimit:10;stroke-dasharray:none;stroke-opacity:1" d="m 1091,4712.33 h 3 l 4,-2 3,-3 2,-4 v -10 l -2,-4 -3,-3 -4,-2 h -5 l -5,2 -7,5 -23,23 v -32"/><path id="path208" style="fill:none;stroke:#000000;stroke-width:6;stroke-linecap:round;stroke-linejoin:round;stroke-miterlimit:10;stroke-dasharray:none;stroke-opacity:1" d="m 1103,4654.33 -2,7 -7,4 -12,3 h -7 l -12,-3 -7,-4 -2,-7 v -5 l 2,-7 7,-5 12,-2 h 7 l 12,2 7,5 2,7 v 5"/><path id="path210" style="fill:#000000;fill-opacity:1;fill-rule:evenodd;stroke:none" d="m 1115,4542.33 33,-39 -44,26"/><path id="path212" style="fill:none;stroke:#000000;stroke-width:6;stroke-linecap:round;stroke-linejoin:round;stroke-miterlimit:10;stroke-dasharray:none;stroke-opacity:1" d="m 1109,4536.33 -76,65"/><path id="path214" style="fill:none;stroke:#000000;stroke-width:6;stroke-linecap:round;stroke-linejoin:round;stroke-miterlimit:10;stroke-dasharray:none;stroke-opacity:1" d="m 1033,4601.33 v 187"/></g></g></svg>