<?xml version="1.0" encoding="UTF-8" standalone="no"?><svg xmlns:dc="http://purl.org/dc/elements/1.1/" xmlns:cc="http://creativecommons.org/ns#" xmlns:rdf="http://www.w3.org/1999/02/22-rdf-syntax-ns#" xmlns:svg="http://www.w3.org/2000/svg" xmlns="http://www.w3.org/2000/svg" xml:space="preserve" id="svg2" version="1.1" viewBox="0 0 793.70667 1122.52"><metadata id="metadata8"><rdf:RDF><cc:Work rdf:about=""><dc:format>image/svg+xml</dc:format><dc:type rdf:resource="http://purl.org/dc/dcmitype/StillImage"/></cc:Work></rdf:RDF></metadata><defs id="defs6"/><g transform="matrix(1.3333333,0,0,-1.3333333,0,1122.52)" id="g10"><g transform="scale(0.12)" id="g12"><path id="path14" style="fill:none;stroke:#000000;stroke-width:6;stroke-linecap:round;stroke-linejoin:round;stroke-miterlimit:10;stroke-dasharray:none;stroke-opacity:1" d="m 1221,5769.33 -2,6 -4,2 h -4 l -4,-2 -2,-4 -2,-8 -2,-6 -4,-4 -4,-2 h -6 l -4,2 -2,2 -2,6 v 8 l 2,6 2,2 4,2 h 6 l 4,-2 4,-4 2,-6 2,-8 2,-4 4,-2 h 4 l 4,2 2,6 v 8"/><path id="path16" style="fill:none;stroke:#000000;stroke-width:6;stroke-linecap:round;stroke-linejoin:round;stroke-miterlimit:10;stroke-dasharray:none;stroke-opacity:1" d="M 3158,3853.33 H 2712"/><path id="path18" style="fill:none;stroke:#000000;stroke-width:6;stroke-linecap:round;stroke-linejoin:round;stroke-miterlimit:10;stroke-dasharray:none;stroke-opacity:1" d="M 3241,3547.33 H 2712"/><path id="path20" style="fill:none;stroke:#000000;stroke-width:6;stroke-linecap:round;stroke-linejoin:round;stroke-miterlimit:10;stroke-dasharray:none;stroke-opacity:1" d="m 2732,3815.33 v -229"/><path id="path22" style="fill:#000000;fill-opacity:1;fill-rule:evenodd;stroke:none" d="m 2738,3815.33 h -13 l 7,38"/><path id="path24" style="fill:#000000;fill-opacity:1;fill-rule:evenodd;stroke:none" d="m 2725,3586.33 h 13 l -6,-39"/><path id="path26" style="fill:none;stroke:#000000;stroke-width:6;stroke-linecap:round;stroke-linejoin:round;stroke-miterlimit:10;stroke-dasharray:none;stroke-opacity:1" d="m 2782,3746.33 1,-4 6,-5 h -38"/><path id="path28" style="fill:none;stroke:#000000;stroke-width:6;stroke-linecap:round;stroke-linejoin:round;stroke-miterlimit:10;stroke-dasharray:none;stroke-opacity:1" d="m 2780,3715.33 h 2 l 3,-2 2,-2 2,-3 v -8 l -2,-3 -2,-2 -3,-2 h -4 l -4,2 -5,3 -18,19 v -26"/><path id="path30" style="fill:none;stroke:#000000;stroke-width:6;stroke-linecap:round;stroke-linejoin:round;stroke-miterlimit:10;stroke-dasharray:none;stroke-opacity:1" d="m 2789,3669.33 -2,6 -5,3 -10,2 h -5 l -9,-2 -6,-3 -1,-6 v -3 l 1,-6 6,-3 9,-2 h 5 l 10,2 5,3 2,6 v 3"/><path id="path32" style="fill:none;stroke:#000000;stroke-width:6;stroke-linecap:round;stroke-linejoin:round;stroke-miterlimit:10;stroke-dasharray:none;stroke-opacity:1" d="M 3158,3853.33 H 2292"/><path id="path34" style="fill:none;stroke:#000000;stroke-width:6;stroke-linecap:round;stroke-linejoin:round;stroke-miterlimit:10;stroke-dasharray:none;stroke-opacity:1" d="M 3153,3496.33 H 2292"/><path id="path36" style="fill:none;stroke:#000000;stroke-width:6;stroke-linecap:round;stroke-linejoin:round;stroke-miterlimit:10;stroke-dasharray:none;stroke-opacity:1" d="m 2311,3815.33 v -280"/><path id="path38" style="fill:#000000;fill-opacity:1;fill-rule:evenodd;stroke:none" d="m 2317,3815.33 h -13 l 7,38"/><path id="path40" style="fill:#000000;fill-opacity:1;fill-rule:evenodd;stroke:none" d="m 2304,3535.33 h 13 l -6,-39"/><path id="path42" style="fill:none;stroke:#000000;stroke-width:6;stroke-linecap:round;stroke-linejoin:round;stroke-miterlimit:10;stroke-dasharray:none;stroke-opacity:1" d="m 2361,3720.33 2,-3 5,-6 h -38"/><path id="path44" style="fill:none;stroke:#000000;stroke-width:6;stroke-linecap:round;stroke-linejoin:round;stroke-miterlimit:10;stroke-dasharray:none;stroke-opacity:1" d="m 2368,3673.33 -25,18 v -27"/><path id="path46" style="fill:none;stroke:#000000;stroke-width:6;stroke-linecap:round;stroke-linejoin:round;stroke-miterlimit:10;stroke-dasharray:none;stroke-opacity:1" d="m 2368,3673.33 h -38"/><path id="path48" style="fill:none;stroke:#000000;stroke-width:6;stroke-linecap:round;stroke-linejoin:round;stroke-miterlimit:10;stroke-dasharray:none;stroke-opacity:1" d="m 2368,3644.33 -2,5 -5,4 -9,2 h -6 l -9,-2 -5,-4 -2,-5 v -4 l 2,-5 5,-4 9,-2 h 6 l 9,2 5,4 2,5 v 4"/><path id="path50" style="fill:none;stroke:#000000;stroke-width:6;stroke-linecap:round;stroke-linejoin:round;stroke-miterlimit:10;stroke-dasharray:none;stroke-opacity:1" d="M 3343,3853.33 H 3177"/><path id="path52" style="fill:none;stroke:#000000;stroke-width:6;stroke-linecap:round;stroke-linejoin:round;stroke-miterlimit:10;stroke-dasharray:none;stroke-opacity:1" d="m 3343,3853.33 v -357"/><path id="path54" style="fill:none;stroke:#000000;stroke-width:6;stroke-linecap:round;stroke-linejoin:round;stroke-miterlimit:10;stroke-dasharray:none;stroke-opacity:1" d="m 3177,3853.33 v -357"/><path id="path56" style="fill:none;stroke:#000000;stroke-width:6;stroke-linecap:round;stroke-linejoin:round;stroke-miterlimit:10;stroke-dasharray:none;stroke-opacity:1" d="m 3283,3853.33 v -283"/><path id="path58" style="fill:none;stroke:#000000;stroke-width:6;stroke-linecap:round;stroke-linejoin:round;stroke-miterlimit:10;stroke-dasharray:none;stroke-opacity:1" d="m 3237,3853.33 v -283"/><path id="path60" style="fill:none;stroke:#000000;stroke-width:6;stroke-linecap:round;stroke-linejoin:round;stroke-miterlimit:10;stroke-dasharray:none;stroke-opacity:1" d="m 3483,3808.33 v 24"/><path id="path62" style="fill:none;stroke:#000000;stroke-width:6;stroke-linecap:round;stroke-linejoin:round;stroke-miterlimit:10;stroke-dasharray:none;stroke-opacity:1" d="m 3483,3825.33 5,5 3,2 h 6 l 3,-2 2,-5 v -17"/><path id="path64" style="fill:none;stroke:#000000;stroke-width:6;stroke-linecap:round;stroke-linejoin:round;stroke-miterlimit:10;stroke-dasharray:none;stroke-opacity:1" d="m 3502,3825.33 5,5 3,2 h 5 l 4,-2 1,-5 v -17"/><path id="path66" style="fill:none;stroke:#000000;stroke-width:6;stroke-linecap:round;stroke-linejoin:round;stroke-miterlimit:10;stroke-dasharray:none;stroke-opacity:1" d="m 3554,3839.33 -1,3 -6,2 h -3 l -5,-2 -3,-5 -2,-9 v -8 l 2,-7 3,-3 5,-2 h 2 l 5,2 3,3 2,5 v 2 l -2,5 -3,3 -5,2 h -2 l -5,-2 -3,-3 -2,-5"/><path id="path68" style="fill:none;stroke:#000000;stroke-width:6;stroke-linecap:round;stroke-linejoin:round;stroke-miterlimit:10;stroke-dasharray:none;stroke-opacity:1" d="m 3237,3570.33 v -3 l 1,-3 1,-2 1,-3 2,-3 2,-2 2,-2 2,-2 3,-1 3,-1 h 3 l 3,-1 3,1 h 3 l 3,1 2,1 3,2 2,2 2,2 2,3 1,3 1,2 1,3 v 3"/><path id="path70" style="fill:none;stroke:#000000;stroke-width:6;stroke-linecap:round;stroke-linejoin:round;stroke-miterlimit:10;stroke-dasharray:none;stroke-opacity:1" d="m 3177,3696.33 v 47"/><path id="path72" style="fill:none;stroke:#000000;stroke-width:6;stroke-linecap:round;stroke-linejoin:round;stroke-miterlimit:10;stroke-dasharray:none;stroke-opacity:1" d="m 3343,3717.33 v 26"/><path id="path74" style="fill:none;stroke:#000000;stroke-width:6;stroke-linecap:round;stroke-linejoin:round;stroke-miterlimit:10;stroke-dasharray:none;stroke-opacity:1" d="m 3343,3724.33 h 173"/><path id="path76" style="fill:none;stroke:#000000;stroke-width:6;stroke-linecap:round;stroke-linejoin:round;stroke-miterlimit:10;stroke-dasharray:none;stroke-opacity:1" d="m 3215,3724.33 h 89"/><path id="path78" style="fill:#000000;fill-opacity:1;fill-rule:evenodd;stroke:none" d="m 3215,3730.33 v -13 l -38,7"/><path id="path80" style="fill:#000000;fill-opacity:1;fill-rule:evenodd;stroke:none" d="m 3304,3717.33 v 13 l 39,-6"/><path id="path82" style="fill:none;stroke:#000000;stroke-width:6;stroke-linecap:round;stroke-linejoin:round;stroke-miterlimit:10;stroke-dasharray:none;stroke-opacity:1" d="m 3409,3774.33 -4,-2 -3,-4 -2,-5 v -4 l 2,-5 3,-4 4,-2 h 6 l 3,2 4,4 2,5 v 4 l -2,5 -4,4 -3,2 h -6"/><path id="path84" style="fill:none;stroke:#000000;stroke-width:6;stroke-linecap:round;stroke-linejoin:round;stroke-miterlimit:10;stroke-dasharray:none;stroke-opacity:1" d="m 3420,3779.33 -16,-36"/><path id="path86" style="fill:none;stroke:#000000;stroke-width:6;stroke-linecap:round;stroke-linejoin:round;stroke-miterlimit:10;stroke-dasharray:none;stroke-opacity:1" d="m 3456,3776.33 -1,3 -6,2 h -4 l -5,-2 -4,-5 -1,-9 v -9 l 1,-8 4,-3 5,-2 h 2 l 6,2 3,3 2,6 v 2 l -2,5 -3,4 -6,2 h -2 l -5,-2 -4,-4 -1,-5"/><path id="path88" style="fill:none;stroke:#000000;stroke-width:6;stroke-linecap:round;stroke-linejoin:round;stroke-miterlimit:10;stroke-dasharray:none;stroke-opacity:1" d="m 3493,3781.33 h -18 l -2,-16 2,2 5,1 h 6 l 5,-1 4,-4 1,-6 v -3 l -1,-6 -4,-3 -5,-2 h -6 l -5,2 -2,2 -2,3"/><path id="path90" style="fill:#000000;fill-opacity:1;fill-rule:evenodd;stroke:none" d="m 988,4644.33 1,-1 h 1 v 0 l 3,1 3,2 1,3 1,4 -1,2 v 2 l -1,2 -1,2 -1,2 -2,2 h -2 l -1,1 -2,-1 -2,-1 -1,-1 -1,-2 -3,-14 -1,-1 -1,-2 -1,-1 -1,-1 -1,-1 h -3 l -1,-1 h -2 l -1,1 v 0 l -3,1 -3,1 -2,2 -2,3 -2,3 -1,3 -1,4 v 4 l 1,7 2,5 4,2 5,1 h 4 v -6 l -1,1 h -1 v 0 l -3,-1 h -1 l -2,-1 -1,-1 -1,-2 v -2 l -1,-2 v -5 l 1,-3 v -2 l 2,-2 1,-2 2,-1 2,-1 h 4 l 1,1 2,2 v 2 l 4,12 1,4 2,2 2,1 3,1 h 1 v 0 l 1,-1 h 1 l 3,-1 2,-1 3,-2 2,-2 1,-3 2,-3 v -3 l 1,-3 -1,-7 -2,-5 -4,-3 h -8 v 0"/><path id="path92" style="fill:#000000;fill-opacity:1;fill-rule:evenodd;stroke:none" d="m 955,4599.33 v 6 l 22,-4 v 24 l -22,4 v 6 l 47,-10 v -6 l -20,5 v -24 l 20,-5 v -6"/><path id="path94" style="fill:#000000;fill-opacity:1;fill-rule:evenodd;stroke:none" d="m 955,4559.33 14,2 v 18 l -14,8 v 6 l 47,-27 v -7 l -47,-6 z m 40,5 -21,12 v -14"/><path id="path96" style="fill:#000000;fill-opacity:1;fill-rule:evenodd;stroke:none" d="m 997,4506.33 v 25 l -15,3 v -22 l -5,1 v 22 l -22,5 v 6 l 47,-10 v -31"/><path id="path98" style="fill:#000000;fill-opacity:1;fill-rule:evenodd;stroke:none" d="m 997,4466.33 v 15 l -42,9 v 6 l 42,-9 v 16 l 5,-2 v -36"/><path id="path100" style="fill:#000000;fill-opacity:1;fill-rule:evenodd;stroke:none" d="m 997,4409.33 v 26 l -15,3 v -25 l -5,1 v 26 l -16,3 v -28 l -6,2 v 33 l 47,-10 v -32"/><path id="path102" style="fill:#000000;fill-opacity:1;fill-rule:evenodd;stroke:none" d="m 955,4372.33 v 7 l 37,15 -37,8 v 6 l 47,-10 v -7 l -38,-15 38,-8 v -6"/><path id="path104" style="fill:#000000;fill-opacity:1;fill-rule:evenodd;stroke:none" d="m 974,4321.33 -5,2 -4,2 -4,4 -2,3 -2,3 -1,3 -1,3 v 20 l 47,-10 v -21 l -1,-2 -1,-3 -2,-2 -2,-2 -3,-1 -3,-1 h -11 v 0 z m 7,4 h 9 l 2,1 2,1 1,2 1,1 v 2 l 1,3 v 12 l -36,7 v -16 l 1,-2 1,-3 3,-2 2,-2 4,-1 3,-2 4,-1 v 0"/><path id="path106" style="fill:#000000;fill-opacity:1;fill-rule:evenodd;stroke:none" d="m 974,4257.33 -5,2 -4,3 -4,3 -2,3 -2,3 -1,3 -1,3 v 20 l 47,-10 v -21 l -1,-2 -1,-3 -2,-2 -2,-2 -3,-1 -3,-1 h -11 v 0 z m 7,4 h 9 l 2,1 2,1 1,2 1,2 v 1 l 1,3 v 12 l -36,7 v -16 l 1,-2 1,-3 3,-2 2,-2 4,-1 3,-2 4,-1 v 0"/><path id="path108" style="fill:#000000;fill-opacity:1;fill-rule:evenodd;stroke:none" d="m 997,4210.33 v 26 l -15,4 v -26 l -5,1 v 26 l -16,3 v -27 l -6,1 v 33 l 47,-10 v -32"/><path id="path110" style="fill:#000000;fill-opacity:1;fill-rule:evenodd;stroke:none" d="m 997,4168.33 v 15 l -42,9 v 6 l 42,-9 v 15 l 5,-1 v -37"/><path id="path112" style="fill:#000000;fill-opacity:1;fill-rule:evenodd;stroke:none" d="m 955,4140.33 14,2 v 18 l -14,8 v 6 l 47,-27 v -7 l -47,-7 z m 40,5 -21,12 v -14"/><path id="path114" style="fill:#000000;fill-opacity:1;fill-rule:evenodd;stroke:none" d="m 955,4120.33 v 6 l 47,-10 v -6"/><path id="path116" style="fill:#000000;fill-opacity:1;fill-rule:evenodd;stroke:none" d="m 955,4081.33 v 29 l 47,-10 v -6 l -41,9 v -23"/><path id="path118" style="fill:#000000;fill-opacity:1;fill-rule:evenodd;stroke:none" d="m 988,4040.33 h 1 1 3 l 3,2 1,3 1,5 -1,2 v 2 l -1,2 -1,1 -1,2 -2,2 -2,1 h -3 l -2,-1 -1,-2 -1,-2 -3,-14 -1,-1 -1,-2 -1,-1 -1,-1 h -1 l -1,-1 h -6 v 0 l -3,1 -3,1 -2,2 -2,3 -2,3 -1,4 -1,3 v 4 l 1,7 2,5 4,3 5,1 h 1 l 1,-1 h 2 v -5 h -1 -1 -3 l -1,-1 -2,-1 -1,-1 -1,-2 v -2 l -1,-2 v -5 l 1,-2 v -3 l 2,-2 1,-1 2,-2 2,-1 h 4 l 1,1 2,2 v 3 l 4,12 1,3 2,2 2,1 3,1 h 1 2 l 3,-1 2,-2 3,-2 2,-2 1,-3 2,-2 v -4 l 1,-3 -1,-7 -2,-4 -4,-3 -4,-1 h -4 v 0"/><path id="path120" style="fill:none;stroke:#000000;stroke-width:6;stroke-linecap:round;stroke-linejoin:round;stroke-miterlimit:10;stroke-dasharray:none;stroke-opacity:1" d="m 941,4683.33 v -646"/><path id="path122" style="fill:none;stroke:#000000;stroke-width:6;stroke-linecap:round;stroke-linejoin:round;stroke-miterlimit:10;stroke-dasharray:none;stroke-opacity:1" d="m 1226,4362.33 v 4 l -1,3 v 3 l -2,3 -1,2 -2,3 -3,2 -2,2 -3,1 -3,2 h -3 l -3,1 h -6 l -3,-1 -3,-1 -3,-2 -3,-1 -2,-3 -2,-2 -2,-3 -2,-2 -1,-3 v -3 l -1,-4 v -3 l 1,-3 1,-3 1,-3 1,-2 2,-3 3,-2 2,-2 3,-2 3,-1 3,-1 3,-1 h 3"/><path id="path124" style="fill:none;stroke:#000000;stroke-width:6;stroke-linecap:round;stroke-linejoin:round;stroke-miterlimit:10;stroke-dasharray:none;stroke-opacity:1" d="m 1201,4340.33 h 6 l 3,1 2,2 3,1 2,2 2,2 2,3 1,3 1,3 1,2 v 6 l -1,3 -1,3 -1,3 -2,2 -2,3 -2,2 -3,1 -2,2 -3,1 h -12 l -3,-1 -3,-2 -2,-1 -2,-2 -2,-3 -2,-2 -1,-3 -1,-3 -1,-3 v -6 l 1,-2 1,-3 1,-3 2,-3 2,-2 2,-2 2,-1 3,-2 3,-1 h 6"/><path id="path126" style="fill:none;stroke:#000000;stroke-width:6;stroke-linecap:round;stroke-linejoin:round;stroke-miterlimit:10;stroke-dasharray:none;stroke-opacity:1" d="m 1178,4297.33 h 46"/><path id="path128" style="fill:none;stroke:#000000;stroke-width:6;stroke-linecap:round;stroke-linejoin:round;stroke-miterlimit:10;stroke-dasharray:none;stroke-opacity:1" d="m 1178,4269.33 h 46"/><path id="path130" style="fill:none;stroke:#000000;stroke-width:6;stroke-linecap:round;stroke-linejoin:round;stroke-miterlimit:10;stroke-dasharray:none;stroke-opacity:1" d="m 1178,4297.33 v -28"/><path id="path132" style="fill:none;stroke:#000000;stroke-width:6;stroke-linecap:round;stroke-linejoin:round;stroke-miterlimit:10;stroke-dasharray:none;stroke-opacity:1" d="m 1224,4297.33 v -28"/><path id="path134" style="fill:none;stroke:#000000;stroke-width:6;stroke-linecap:round;stroke-linejoin:round;stroke-miterlimit:10;stroke-dasharray:none;stroke-opacity:1" d="m 1224,4283.33 5,2 5,2 5,2 5,3 5,3 4,4 5,3 4,4 3,5 4,4 3,5 3,5 2,5 2,5 2,5 1,6 1,6 v 5 l 1,6 -1,5 v 6 l -1,6 -2,5 -1,5 -2,6 -3,5 -3,5 -3,4 -3,5 -4,4 -4,4 -4,4 -5,3 -4,3 -5,3 -5,2 -6,2 -5,2 -5,2 h -6 l -6,1 h -11 l -5,-1 h -6 l -5,-2 -6,-2 -5,-2 -5,-2 -5,-3 -5,-3 -4,-3 -5,-4 -4,-4 -3,-4 -4,-5 -3,-4 -3,-5 -2,-5 -2,-6 -2,-5 -1,-5 -1,-6 -1,-6 v -11 l 1,-5 1,-6 1,-6 2,-5 2,-5 2,-5 3,-5 3,-5 3,-4 4,-5 4,-4 4,-3 5,-4 4,-3 5,-3 5,-2 6,-2 5,-2"/><path id="path136" style="fill:none;stroke:#000000;stroke-width:6;stroke-linecap:round;stroke-linejoin:round;stroke-miterlimit:10;stroke-dasharray:none;stroke-opacity:1" d="m 1201,4518.33 v -79"/><path id="path138" style="fill:none;stroke:#000000;stroke-width:6;stroke-linecap:round;stroke-linejoin:round;stroke-miterlimit:10;stroke-dasharray:none;stroke-opacity:1" d="m 1201,4426.33 v -13"/><path id="path140" style="fill:none;stroke:#000000;stroke-width:6;stroke-linecap:round;stroke-linejoin:round;stroke-miterlimit:10;stroke-dasharray:none;stroke-opacity:1" d="m 1201,4401.33 v -77"/><path id="path142" style="fill:none;stroke:#000000;stroke-width:6;stroke-linecap:round;stroke-linejoin:round;stroke-miterlimit:10;stroke-dasharray:none;stroke-opacity:1" d="m 1201,4311.33 v -12"/><path id="path144" style="fill:none;stroke:#000000;stroke-width:6;stroke-linecap:round;stroke-linejoin:round;stroke-miterlimit:10;stroke-dasharray:none;stroke-opacity:1" d="m 1201,4286.33 v -79"/><path id="path146" style="fill:none;stroke:#000000;stroke-width:6;stroke-linecap:round;stroke-linejoin:round;stroke-miterlimit:10;stroke-dasharray:none;stroke-opacity:1" d="m 1330,4362.33 h -53"/><path id="path148" style="fill:none;stroke:#000000;stroke-width:6;stroke-linecap:round;stroke-linejoin:round;stroke-miterlimit:10;stroke-dasharray:none;stroke-opacity:1" d="m 1264,4362.33 h -12"/><path id="path150" style="fill:none;stroke:#000000;stroke-width:6;stroke-linecap:round;stroke-linejoin:round;stroke-miterlimit:10;stroke-dasharray:none;stroke-opacity:1" d="m 1239,4362.33 h -76"/><path id="path152" style="fill:none;stroke:#000000;stroke-width:6;stroke-linecap:round;stroke-linejoin:round;stroke-miterlimit:10;stroke-dasharray:none;stroke-opacity:1" d="m 1150,4362.33 h -13"/><path id="path154" style="fill:none;stroke:#000000;stroke-width:6;stroke-linecap:round;stroke-linejoin:round;stroke-miterlimit:10;stroke-dasharray:none;stroke-opacity:1" d="m 1124,4362.33 h -52"/><path id="path156" style="fill:none;stroke:#000000;stroke-width:6;stroke-linecap:round;stroke-linejoin:round;stroke-miterlimit:10;stroke-dasharray:none;stroke-opacity:1" d="m 1215,4445.33 h 196"/><path id="path158" style="fill:none;stroke:#000000;stroke-width:6;stroke-linecap:round;stroke-linejoin:round;stroke-miterlimit:10;stroke-dasharray:none;stroke-opacity:1" d="m 1237,4297.33 h 174"/><path id="path160" style="fill:none;stroke:#000000;stroke-width:6;stroke-linecap:round;stroke-linejoin:round;stroke-miterlimit:10;stroke-dasharray:none;stroke-opacity:1" d="m 1389,4395.33 v -47"/><path id="path162" style="fill:#000000;fill-opacity:1;fill-rule:evenodd;stroke:none" d="m 1397,4395.33 h -17 l 9,50"/><path id="path164" style="fill:#000000;fill-opacity:1;fill-rule:evenodd;stroke:none" d="m 1380,4348.33 h 17 l -8,-51"/><path id="path166" style="fill:none;stroke:#000000;stroke-width:6;stroke-linecap:round;stroke-linejoin:round;stroke-miterlimit:10;stroke-dasharray:none;stroke-opacity:1" d="m 1450,4383.33 v 19 l -17,2 2,-2 2,-6 v -6 l -2,-5 -4,-4 -6,-2 h -4 l -6,2 -4,4 -2,5 v 6 l 2,6 2,2 4,2"/><path id="path168" style="fill:none;stroke:#000000;stroke-width:6;stroke-linecap:round;stroke-linejoin:round;stroke-miterlimit:10;stroke-dasharray:none;stroke-opacity:1" d="m 1450,4357.33 -2,6 -3,2 h -4 l -4,-2 -2,-4 -2,-8 -2,-6 -4,-4 -4,-2 h -6 l -4,2 -2,2 -2,6 v 8 l 2,6 2,2 4,2 h 6 l 4,-2 4,-4 2,-6 2,-8 2,-4 4,-2 h 4 l 3,2 2,6 v 8"/><path id="path170" style="fill:none;stroke:#000000;stroke-width:6;stroke-linecap:round;stroke-linejoin:round;stroke-miterlimit:10;stroke-dasharray:none;stroke-opacity:1" d="m 1211,4445.33 h 319"/><path id="path172" style="fill:none;stroke:#000000;stroke-width:6;stroke-linecap:round;stroke-linejoin:round;stroke-miterlimit:10;stroke-dasharray:none;stroke-opacity:1" d="m 1237,4269.33 h 293"/><path id="path174" style="fill:none;stroke:#000000;stroke-width:6;stroke-linecap:round;stroke-linejoin:round;stroke-miterlimit:10;stroke-dasharray:none;stroke-opacity:1" d="m 1507,4395.33 v -75"/><path id="path176" style="fill:#000000;fill-opacity:1;fill-rule:evenodd;stroke:none" d="m 1515,4395.33 h -16 l 8,50"/><path id="path178" style="fill:#000000;fill-opacity:1;fill-rule:evenodd;stroke:none" d="m 1499,4320.33 h 16 l -8,-51"/><path id="path180" style="fill:none;stroke:#000000;stroke-width:6;stroke-linecap:round;stroke-linejoin:round;stroke-miterlimit:10;stroke-dasharray:none;stroke-opacity:1" d="m 1563,4360.33 4,2 2,6 v 4 l -2,6 -6,4 -10,2 h -10 l -7,-2 -4,-4 -2,-6 v -2 l 2,-6 4,-4 5,-2 h 2 l 6,2 4,4 2,6 v 2 l -2,6 -4,4 -6,2"/><path id="path182" style="fill:none;stroke:#000000;stroke-width:6;stroke-linecap:round;stroke-linejoin:round;stroke-miterlimit:10;stroke-dasharray:none;stroke-opacity:1" d="m 1555,4319.33 -6,2 -4,4 -2,6 v 2 l 2,6 4,4 6,2 h 2 l 6,-2 4,-4 2,-6 v -2 l -2,-6 -4,-4 -8,-2 h -10 l -9,2 -6,4 -2,6 v 4 l 2,6 4,2"/><path id="path184" style="fill:none;stroke:#000000;stroke-width:6;stroke-linecap:round;stroke-linejoin:round;stroke-miterlimit:10;stroke-dasharray:none;stroke-opacity:1" d="m 1178,4256.33 v -114"/><path id="path186" style="fill:none;stroke:#000000;stroke-width:6;stroke-linecap:round;stroke-linejoin:round;stroke-miterlimit:10;stroke-dasharray:none;stroke-opacity:1" d="m 1224,4256.33 v -114"/><path id="path188" style="fill:none;stroke:#000000;stroke-width:6;stroke-linecap:round;stroke-linejoin:round;stroke-miterlimit:10;stroke-dasharray:none;stroke-opacity:1" d="m 1274,4165.33 h 151"/><path id="path190" style="fill:none;stroke:#000000;stroke-width:6;stroke-linecap:round;stroke-linejoin:round;stroke-miterlimit:10;stroke-dasharray:none;stroke-opacity:1" d="m 1178,4165.33 h 46"/><path id="path192" style="fill:none;stroke:#000000;stroke-width:6;stroke-linecap:round;stroke-linejoin:round;stroke-miterlimit:10;stroke-dasharray:none;stroke-opacity:1" d="m 1127,4165.33 h -50"/><path id="path194" style="fill:#000000;fill-opacity:1;fill-rule:evenodd;stroke:none" d="m 1127,4157.33 v 17 l 51,-9"/><path id="path196" style="fill:#000000;fill-opacity:1;fill-rule:evenodd;stroke:none" d="m 1274,4174.33 v -17 l -50,8"/><path id="path198" style="fill:none;stroke:#000000;stroke-width:6;stroke-linecap:round;stroke-linejoin:round;stroke-miterlimit:10;stroke-dasharray:none;stroke-opacity:1" d="m 1345,4219.33 4,2 6,6 v -41"/><path id="path200" style="fill:none;stroke:#000000;stroke-width:6;stroke-linecap:round;stroke-linejoin:round;stroke-miterlimit:10;stroke-dasharray:none;stroke-opacity:1" d="m 1387,4227.33 -6,-2 -2,-4 v -4 l 2,-4 4,-2 7,-2 6,-1 4,-4 2,-4 v -6 l -2,-4 -2,-2 -6,-2 h -7 l -6,2 -2,2 -2,4 v 6 l 2,4 4,4 5,1 8,2 4,2 2,4 v 4 l -2,4 -6,2 h -7"/><path id="path202" style="fill:none;stroke:#000000;stroke-width:6;stroke-linecap:round;stroke-linejoin:round;stroke-miterlimit:10;stroke-dasharray:none;stroke-opacity:1" d="m 1078,4626.33 h 38 l -38,-15 38,-14 h -38"/><path id="path204" style="fill:none;stroke:#000000;stroke-width:6;stroke-linecap:round;stroke-linejoin:round;stroke-miterlimit:10;stroke-dasharray:none;stroke-opacity:1" d="m 1107,4580.33 h 2 l 4,-2 2,-1 1,-4 v -7 l -1,-4 -2,-2 -4,-2 h -4 l -3,2 -6,4 -18,18 v -25"/><path id="path206" style="fill:none;stroke:#000000;stroke-width:6;stroke-linecap:round;stroke-linejoin:round;stroke-miterlimit:10;stroke-dasharray:none;stroke-opacity:1" d="m 1116,4535.33 -1,5 -6,4 -9,2 h -5 l -10,-2 -5,-4 -2,-5 v -4 l 2,-5 5,-4 10,-2 h 5 l 9,2 6,4 1,5 v 4"/><path id="path208" style="fill:#000000;fill-opacity:1;fill-rule:evenodd;stroke:none" d="m 1148,4417.33 33,-39 -44,26"/><path id="path210" style="fill:none;stroke:#000000;stroke-width:6;stroke-linecap:round;stroke-linejoin:round;stroke-miterlimit:10;stroke-dasharray:none;stroke-opacity:1" d="m 1142,4411.33 -76,65"/><path id="path212" style="fill:none;stroke:#000000;stroke-width:6;stroke-linecap:round;stroke-linejoin:round;stroke-miterlimit:10;stroke-dasharray:none;stroke-opacity:1" d="m 1066,4476.33 v 153"/></g></g></svg>