<?xml version="1.0" encoding="UTF-8" standalone="no"?><svg xmlns:dc="http://purl.org/dc/elements/1.1/" xmlns:cc="http://creativecommons.org/ns#" xmlns:rdf="http://www.w3.org/1999/02/22-rdf-syntax-ns#" xmlns:svg="http://www.w3.org/2000/svg" xmlns="http://www.w3.org/2000/svg" xml:space="preserve" id="svg2" version="1.1" viewBox="0 0 793.70667 1122.52"><metadata id="metadata8"><rdf:RDF><cc:Work rdf:about=""><dc:format>image/svg+xml</dc:format><dc:type rdf:resource="http://purl.org/dc/dcmitype/StillImage"/></cc:Work></rdf:RDF></metadata><defs id="defs6"/><g transform="matrix(1.3333333,0,0,-1.3333333,0,1122.52)" id="g10"><g transform="scale(0.12)" id="g12"><path id="path14" style="fill:none;stroke:#000000;stroke-width:6;stroke-linecap:round;stroke-linejoin:round;stroke-miterlimit:10;stroke-dasharray:none;stroke-opacity:1" d="m 3094,3394.33 h 331"/><path id="path16" style="fill:none;stroke:#000000;stroke-width:6;stroke-linecap:round;stroke-linejoin:round;stroke-miterlimit:10;stroke-dasharray:none;stroke-opacity:1" d="m 3094,3400.33 v -16"/><path id="path18" style="fill:none;stroke:#000000;stroke-width:6;stroke-linecap:round;stroke-linejoin:round;stroke-miterlimit:10;stroke-dasharray:none;stroke-opacity:1" d="m 3094,3400.33 v -16"/><path id="path20" style="fill:none;stroke:#000000;stroke-width:6;stroke-linecap:round;stroke-linejoin:round;stroke-miterlimit:10;stroke-dasharray:none;stroke-opacity:1" d="m 3094,3400.33 v -16"/><path id="path22" style="fill:none;stroke:#000000;stroke-width:6;stroke-linecap:round;stroke-linejoin:round;stroke-miterlimit:10;stroke-dasharray:none;stroke-opacity:1" d="m 2941,3481.33 h 638"/><path id="path24" style="fill:none;stroke:#000000;stroke-width:6;stroke-linecap:round;stroke-linejoin:round;stroke-miterlimit:10;stroke-dasharray:none;stroke-opacity:1" d="m 3566,3437.33 v 44"/><path id="path26" style="fill:none;stroke:#000000;stroke-width:6;stroke-linecap:round;stroke-linejoin:round;stroke-miterlimit:10;stroke-dasharray:none;stroke-opacity:1" d="m 3579,3437.33 v 44"/><path id="path28" style="fill:none;stroke:#000000;stroke-width:6;stroke-linecap:round;stroke-linejoin:round;stroke-miterlimit:10;stroke-dasharray:none;stroke-opacity:1" d="m 2954,3379.33 v 102"/><path id="path30" style="fill:none;stroke:#000000;stroke-width:6;stroke-linecap:round;stroke-linejoin:round;stroke-miterlimit:10;stroke-dasharray:none;stroke-opacity:1" d="m 2941,3379.33 v 102"/><path id="path32" style="fill:none;stroke:#000000;stroke-width:6;stroke-linecap:round;stroke-linejoin:round;stroke-miterlimit:10;stroke-dasharray:none;stroke-opacity:1" d="m 2941,3379.33 h 638"/><path id="path34" style="fill:none;stroke:#000000;stroke-width:6;stroke-linecap:round;stroke-linejoin:round;stroke-miterlimit:10;stroke-dasharray:none;stroke-opacity:1" d="M 3566,3405.33 H 2954"/><path id="path36" style="fill:none;stroke:#000000;stroke-width:6;stroke-linecap:round;stroke-linejoin:round;stroke-miterlimit:10;stroke-dasharray:none;stroke-opacity:1" d="M 3566,3410.33 H 2954"/><path id="path38" style="fill:none;stroke:#000000;stroke-width:6;stroke-linecap:round;stroke-linejoin:round;stroke-miterlimit:10;stroke-dasharray:none;stroke-opacity:1" d="M 3566,3436.33 H 2954"/><path id="path40" style="fill:none;stroke:#000000;stroke-width:6;stroke-linecap:round;stroke-linejoin:round;stroke-miterlimit:10;stroke-dasharray:none;stroke-opacity:1" d="M 3566,3436.33 H 2954"/><path id="path42" style="fill:none;stroke:#000000;stroke-width:6;stroke-linecap:round;stroke-linejoin:round;stroke-miterlimit:10;stroke-dasharray:none;stroke-opacity:1" d="M 3566,3436.33 H 2954"/><path id="path44" style="fill:none;stroke:#000000;stroke-width:6;stroke-linecap:round;stroke-linejoin:round;stroke-miterlimit:10;stroke-dasharray:none;stroke-opacity:1" d="M 3566,3466.33 H 2954"/><path id="path46" style="fill:none;stroke:#000000;stroke-width:6;stroke-linecap:round;stroke-linejoin:round;stroke-miterlimit:10;stroke-dasharray:none;stroke-opacity:1" d="M 3566,3471.33 H 2954"/><path id="path48" style="fill:none;stroke:#000000;stroke-width:6;stroke-linecap:round;stroke-linejoin:round;stroke-miterlimit:10;stroke-dasharray:none;stroke-opacity:1" d="m 2964,3379.33 h 1 l 1,1 1,1 v 4 l -1,1 -1,1 h -3 l -1,-1 v -1 l -1,-1 v -2 l 1,-1 v -1 l 1,-1 h 2"/><path id="path50" style="fill:none;stroke:#000000;stroke-width:6;stroke-linecap:round;stroke-linejoin:round;stroke-miterlimit:10;stroke-dasharray:none;stroke-opacity:1" d="m 2991,3379.33 h 1 l 2,1 v 1 l 1,1 v 2 l -1,1 v 1 l -2,1 h -2 l -1,-1 -1,-1 v -1 l -1,-1 1,-1 v -1 l 1,-1 1,-1 h 1"/><path id="path52" style="fill:none;stroke:#000000;stroke-width:6;stroke-linecap:round;stroke-linejoin:round;stroke-miterlimit:10;stroke-dasharray:none;stroke-opacity:1" d="m 3022,3379.33 h 1 l 1,1 1,1 v 1 l 1,1 -1,1 v 1 l -1,1 -1,1 h -2 l -1,-1 -1,-1 -1,-1 v -2 l 1,-1 1,-1 1,-1 h 1"/><path id="path54" style="fill:none;stroke:#000000;stroke-width:6;stroke-linecap:round;stroke-linejoin:round;stroke-miterlimit:10;stroke-dasharray:none;stroke-opacity:1" d="m 3053,3379.33 h 1 l 1,1 1,1 v 4 l -1,1 -1,1 h -3 l -1,-1 -1,-1 v -4 l 1,-1 1,-1 h 2"/><path id="path56" style="fill:none;stroke:#000000;stroke-width:6;stroke-linecap:round;stroke-linejoin:round;stroke-miterlimit:10;stroke-dasharray:none;stroke-opacity:1" d="m 3083,3379.33 h 1 l 1,1 1,1 1,1 v 2 l -1,1 -1,1 -1,1 h -2 l -1,-1 -1,-1 -1,-1 v -2 l 1,-1 1,-1 1,-1 h 1"/><path id="path58" style="fill:none;stroke:#000000;stroke-width:6;stroke-linecap:round;stroke-linejoin:round;stroke-miterlimit:10;stroke-dasharray:none;stroke-opacity:1" d="m 3114,3379.33 h 1 l 1,1 1,1 v 1 l 1,1 -1,1 v 1 l -1,1 -1,1 h -2 l -2,-1 v -1 l -1,-1 v -2 l 1,-1 v -1 l 2,-1 h 1"/><path id="path60" style="fill:none;stroke:#000000;stroke-width:6;stroke-linecap:round;stroke-linejoin:round;stroke-miterlimit:10;stroke-dasharray:none;stroke-opacity:1" d="m 3144,3379.33 h 1 l 2,1 v 1 l 1,1 v 2 l -1,1 v 1 l -2,1 h -2 l -1,-1 -1,-1 v -1 l -1,-1 1,-1 v -1 l 1,-1 1,-1 h 1"/><path id="path62" style="fill:none;stroke:#000000;stroke-width:6;stroke-linecap:round;stroke-linejoin:round;stroke-miterlimit:10;stroke-dasharray:none;stroke-opacity:1" d="m 3175,3379.33 h 1 l 1,1 1,1 v 1 l 1,1 -1,1 v 1 l -1,1 -1,1 h -2 l -1,-1 -1,-1 -1,-1 v -2 l 1,-1 1,-1 1,-1 h 1"/><path id="path64" style="fill:none;stroke:#000000;stroke-width:6;stroke-linecap:round;stroke-linejoin:round;stroke-miterlimit:10;stroke-dasharray:none;stroke-opacity:1" d="m 3205,3379.33 h 2 l 1,1 1,1 v 4 l -1,1 -1,1 h -3 l -1,-1 -1,-1 v -4 l 1,-1 1,-1 h 1"/><path id="path66" style="fill:none;stroke:#000000;stroke-width:6;stroke-linecap:round;stroke-linejoin:round;stroke-miterlimit:10;stroke-dasharray:none;stroke-opacity:1" d="m 3406,3379.33 h 1 l 1,1 1,1 1,1 v 2 l -1,1 -1,1 -1,1 h -2 l -1,-1 -1,-1 -1,-1 v -2 l 1,-1 1,-1 1,-1 h 1"/><path id="path68" style="fill:none;stroke:#000000;stroke-width:6;stroke-linecap:round;stroke-linejoin:round;stroke-miterlimit:10;stroke-dasharray:none;stroke-opacity:1" d="m 3375,3379.33 h 2 l 1,1 1,1 v 4 l -1,1 -1,1 h -3 l -1,-1 -1,-1 v -4 l 1,-1 1,-1 h 1"/><path id="path70" style="fill:none;stroke:#000000;stroke-width:6;stroke-linecap:round;stroke-linejoin:round;stroke-miterlimit:10;stroke-dasharray:none;stroke-opacity:1" d="m 3345,3379.33 h 1 l 1,1 1,1 1,1 v 2 l -1,1 -1,1 -1,1 h -2 l -1,-1 -1,-1 -1,-1 v -2 l 1,-1 1,-1 1,-1 h 1"/><path id="path72" style="fill:none;stroke:#000000;stroke-width:6;stroke-linecap:round;stroke-linejoin:round;stroke-miterlimit:10;stroke-dasharray:none;stroke-opacity:1" d="m 3314,3379.33 h 1 l 2,1 v 1 l 1,1 v 2 l -1,1 v 1 l -2,1 h -2 l -1,-1 -1,-1 v -1 l -1,-1 1,-1 v -1 l 1,-1 1,-1 h 1"/><path id="path74" style="fill:none;stroke:#000000;stroke-width:6;stroke-linecap:round;stroke-linejoin:round;stroke-miterlimit:10;stroke-dasharray:none;stroke-opacity:1" d="m 3284,3379.33 h 1 l 1,1 1,1 v 1 l 1,1 -1,1 v 1 l -1,1 -1,1 h -2 l -2,-1 v -1 l -1,-1 v -2 l 1,-1 v -1 l 2,-1 h 1"/><path id="path76" style="fill:none;stroke:#000000;stroke-width:6;stroke-linecap:round;stroke-linejoin:round;stroke-miterlimit:10;stroke-dasharray:none;stroke-opacity:1" d="m 3236,3379.33 h 1 l 1,1 1,1 1,1 v 2 l -1,1 -1,1 -1,1 h -2 l -1,-1 -1,-1 -1,-1 v -2 l 1,-1 1,-1 1,-1 h 1"/><path id="path78" style="fill:none;stroke:#000000;stroke-width:6;stroke-linecap:round;stroke-linejoin:round;stroke-miterlimit:10;stroke-dasharray:none;stroke-opacity:1" d="m 3437,3379.33 h 1 l 1,1 1,1 v 4 l -1,1 -1,1 h -3 l -1,-1 v -1 l -1,-1 v -2 l 1,-1 v -1 l 1,-1 h 2"/><path id="path80" style="fill:none;stroke:#000000;stroke-width:6;stroke-linecap:round;stroke-linejoin:round;stroke-miterlimit:10;stroke-dasharray:none;stroke-opacity:1" d="m 3467,3379.33 h 1 l 1,1 1,1 1,1 v 2 l -1,1 -1,1 -1,1 h -2 l -1,-1 -1,-1 v -1 l -1,-1 1,-1 v -1 l 1,-1 1,-1 h 1"/><path id="path82" style="fill:none;stroke:#000000;stroke-width:6;stroke-linecap:round;stroke-linejoin:round;stroke-miterlimit:10;stroke-dasharray:none;stroke-opacity:1" d="m 3425,3394.33 v -15"/><path id="path84" style="fill:none;stroke:#000000;stroke-width:6;stroke-linecap:round;stroke-linejoin:round;stroke-miterlimit:10;stroke-dasharray:none;stroke-opacity:1" d="m 3566,3379.33 v 102"/><path id="path86" style="fill:none;stroke:#000000;stroke-width:6;stroke-linecap:round;stroke-linejoin:round;stroke-miterlimit:10;stroke-dasharray:none;stroke-opacity:1" d="m 3579,3379.33 v 102"/><path id="path88" style="fill:none;stroke:#000000;stroke-width:6;stroke-linecap:round;stroke-linejoin:round;stroke-miterlimit:10;stroke-dasharray:none;stroke-opacity:1" d="m 3556,3379.33 h 1 l 1,1 1,1 1,1 v 2 l -1,1 -1,1 -1,1 h -2 l -1,-1 -1,-1 -1,-1 v -2 l 1,-1 1,-1 1,-1 h 1"/><path id="path90" style="fill:none;stroke:#000000;stroke-width:6;stroke-linecap:round;stroke-linejoin:round;stroke-miterlimit:10;stroke-dasharray:none;stroke-opacity:1" d="m 3528,3379.33 h 2 l 1,1 1,1 v 4 l -1,1 -1,1 h -3 l -1,-1 -1,-1 v -4 l 1,-1 1,-1 h 1"/><path id="path92" style="fill:none;stroke:#000000;stroke-width:6;stroke-linecap:round;stroke-linejoin:round;stroke-miterlimit:10;stroke-dasharray:none;stroke-opacity:1" d="m 3498,3379.33 h 1 l 1,1 1,1 1,1 v 2 l -1,1 -1,1 -1,1 h -2 l -1,-1 -1,-1 -1,-1 v -2 l 1,-1 1,-1 1,-1 h 1"/><path id="path94" style="fill:none;stroke:#000000;stroke-width:6;stroke-linecap:round;stroke-linejoin:round;stroke-miterlimit:10;stroke-dasharray:none;stroke-opacity:1" d="m 3467,3379.33 h 1 l 1,1 1,1 1,1 v 2 l -1,1 -1,1 -1,1 h -2 l -1,-1 -1,-1 v -1 l -1,-1 1,-1 v -1 l 1,-1 1,-1 h 1"/><path id="path96" style="fill:none;stroke:#000000;stroke-width:6;stroke-linecap:round;stroke-linejoin:round;stroke-miterlimit:10;stroke-dasharray:none;stroke-opacity:1" d="M 3496,3405.33 H 2954"/><path id="path98" style="fill:none;stroke:#000000;stroke-width:6;stroke-linecap:round;stroke-linejoin:round;stroke-miterlimit:10;stroke-dasharray:none;stroke-opacity:1" d="M 3496,3410.33 H 2954"/><path id="path100" style="fill:none;stroke:#000000;stroke-width:6;stroke-linecap:round;stroke-linejoin:round;stroke-miterlimit:10;stroke-dasharray:none;stroke-opacity:1" d="M 3496,3436.33 H 2954"/><path id="path102" style="fill:none;stroke:#000000;stroke-width:6;stroke-linecap:round;stroke-linejoin:round;stroke-miterlimit:10;stroke-dasharray:none;stroke-opacity:1" d="M 3566,3441.33 H 2954"/><path id="path104" style="fill:none;stroke:#000000;stroke-width:6;stroke-linecap:round;stroke-linejoin:round;stroke-miterlimit:10;stroke-dasharray:none;stroke-opacity:1" d="M 3496,3436.33 H 2954"/><path id="path106" style="fill:none;stroke:#000000;stroke-width:6;stroke-linecap:round;stroke-linejoin:round;stroke-miterlimit:10;stroke-dasharray:none;stroke-opacity:1" d="M 3566,3441.33 H 2954"/><path id="path108" style="fill:none;stroke:#000000;stroke-width:6;stroke-linecap:round;stroke-linejoin:round;stroke-miterlimit:10;stroke-dasharray:none;stroke-opacity:1" d="M 3496,3436.33 H 2954"/><path id="path110" style="fill:none;stroke:#000000;stroke-width:6;stroke-linecap:round;stroke-linejoin:round;stroke-miterlimit:10;stroke-dasharray:none;stroke-opacity:1" d="M 3566,3441.33 H 2954"/><path id="path112" style="fill:none;stroke:#000000;stroke-width:6;stroke-linecap:round;stroke-linejoin:round;stroke-miterlimit:10;stroke-dasharray:none;stroke-opacity:1" d="M 3566,3466.33 H 2954"/><path id="path114" style="fill:none;stroke:#000000;stroke-width:6;stroke-linecap:round;stroke-linejoin:round;stroke-miterlimit:10;stroke-dasharray:none;stroke-opacity:1" d="M 3566,3471.33 H 2954"/><path id="path116" style="fill:none;stroke:#000000;stroke-width:6;stroke-linecap:round;stroke-linejoin:round;stroke-miterlimit:10;stroke-dasharray:none;stroke-opacity:1" d="m 2954,3387.33 h 612"/><path id="path118" style="fill:none;stroke:#000000;stroke-width:6;stroke-linecap:round;stroke-linejoin:round;stroke-miterlimit:10;stroke-dasharray:none;stroke-opacity:1" d="m 3349,3491.33 v -10"/><path id="path120" style="fill:none;stroke:#000000;stroke-width:6;stroke-linecap:round;stroke-linejoin:round;stroke-miterlimit:10;stroke-dasharray:none;stroke-opacity:1" d="m 3171,3491.33 v -10"/><path id="path122" style="fill:none;stroke:#000000;stroke-width:6;stroke-linecap:round;stroke-linejoin:round;stroke-miterlimit:10;stroke-dasharray:none;stroke-opacity:1" d="M 3349,3491.33 H 3171"/><path id="path124" style="fill:none;stroke:#000000;stroke-width:6;stroke-linecap:round;stroke-linejoin:round;stroke-miterlimit:10;stroke-dasharray:none;stroke-opacity:1" d="m 3260,4889.33 h 13 l 7,1 7,2 6,1 7,2 6,3 6,3 6,3 6,3 6,4 5,4 6,4 4,5 5,5 4,5 5,6 3,5 4,6 3,6 3,6 2,7 2,6 2,7 1,6 1,7 1,7 v 13 l -1,7 -1,7 -1,7 -2,6 -2,7 -2,6 -3,6 -3,6 -4,6 -3,6 -5,5 -4,5 -5,5 -4,5 -6,4 -5,4 -6,4 -6,4 -6,3 -6,2 -6,3 -7,2 -6,2 -7,1 -7,1 -6,1 h -14 l -7,-1 -6,-1 -7,-1 -7,-2 -6,-2 -6,-3 -7,-2 -6,-3 -6,-4 -5,-4 -6,-4 -5,-4 -5,-5 -4,-5 -5,-5 -4,-5 -4,-6 -3,-6 -3,-6 -3,-6 -2,-6 -2,-7 -2,-6 -1,-7 -1,-7 -1,-7 v -13 l 1,-7 1,-7 1,-6 2,-7 2,-6 2,-7 3,-6 3,-6 3,-6 4,-5 4,-6 5,-5 4,-5 5,-5 5,-4 6,-4 5,-4 6,-3 6,-3 7,-3 6,-3 6,-2 7,-1 7,-2 6,-1 h 14"/><path id="path126" style="fill:none;stroke:#000000;stroke-width:6;stroke-linecap:round;stroke-linejoin:round;stroke-miterlimit:10;stroke-dasharray:none;stroke-opacity:1" d="m 3260,4887.33 h 7 l 7,1 6,1 7,1 7,2 6,2 7,2 6,3 6,3 6,4 6,3 5,5 6,4 5,5 4,5 5,5 4,6 4,5 3,6 4,6 2,7 3,6 2,7 2,6 1,7 1,7 1,7 v 14 l -1,6 -1,7 -1,7 -2,7 -2,6 -3,7 -2,6 -4,6 -3,6 -4,6 -4,5 -5,6 -4,5 -5,4 -6,5 -5,4 -6,4 -6,3 -6,3 -6,3 -7,3 -6,2 -7,1 -7,2 -6,1 h -7 l -7,1 -7,-1 h -7 l -7,-1 -6,-2 -7,-1 -7,-2 -6,-3 -6,-3 -7,-3 -6,-3 -5,-4 -6,-4 -5,-5 -5,-4 -5,-5 -4,-6 -4,-5 -4,-6 -4,-6 -3,-6 -3,-6 -2,-7 -2,-6 -2,-7 -1,-7 -1,-7 -1,-6 v -14 l 1,-7 1,-7 1,-7 2,-6 2,-7 2,-6 3,-7 3,-6 4,-6 4,-5 4,-6 4,-5 5,-5 5,-5 5,-4 6,-5 5,-3 6,-4 7,-3 6,-3 6,-2 7,-2 7,-2 6,-1 7,-1 7,-1 h 7"/><path id="path128" style="fill:none;stroke:#000000;stroke-width:6;stroke-linecap:round;stroke-linejoin:round;stroke-miterlimit:10;stroke-dasharray:none;stroke-opacity:1" d="m 3260,4844.33 h 8 l 8,1 7,1 8,1 8,2 8,2 7,2 7,3 8,3 7,3 7,4 6,4 7,5 6,5 6,5 6,5 6,5 5,6 5,6 5,7 4,6 4,7 4,7 4,7 3,7 2,8 3,7 2,8 1,7 2,8 1,8 v 31 l -1,8 -2,8 -1,8 -2,7 -3,8 -2,7 -3,7 -4,8 -4,6 -4,7 -4,7 -5,6 -5,6 -5,6 -6,6 -6,5 -6,5 -6,5 -7,4 -6,4 -7,4 -7,3 -8,3 -7,3 -7,3 -8,2 -8,1 -8,2 -7,1 h -32 l -8,-1 -7,-2 -8,-1 -8,-2 -7,-3 -8,-3 -7,-3 -7,-3 -7,-4 -7,-4 -6,-4 -7,-5 -6,-5 -5,-5 -6,-6 -5,-6 -5,-6 -5,-6 -4,-7 -5,-7 -3,-6 -4,-8 -3,-7 -3,-7 -2,-8 -2,-7 -2,-8 -1,-8 -1,-8 -1,-7 v -16 l 1,-8 1,-8 1,-8 2,-7 2,-8 2,-7 3,-8 3,-7 4,-7 3,-7 5,-7 4,-6 5,-7 5,-6 5,-6 6,-5 5,-5 6,-5 7,-5 6,-5 7,-4 7,-4 7,-3 7,-3 8,-3 7,-2 8,-2 8,-2 7,-1 8,-1 8,-1 h 8"/><path id="path130" style="fill:none;stroke:#000000;stroke-width:6;stroke-linecap:round;stroke-linejoin:round;stroke-miterlimit:10;stroke-dasharray:none;stroke-opacity:1" d="m 3260,4899.33 h 13 l 6,1 6,2 7,1 6,2 6,3 6,2 5,3 6,4 5,4 5,4 5,4 5,4 4,5 4,5 4,6 3,5 3,6 3,6 2,6 2,6 2,6 1,6 1,7 1,6 v 13 l -1,7 -1,6 -1,6 -2,7 -2,6 -2,6 -3,6 -3,5 -3,6 -4,5 -4,5 -4,5 -5,4 -5,5 -5,4 -5,3 -6,4 -5,3 -6,3 -6,2 -6,2 -7,2 -6,1 -6,1 -7,1 h -13 l -6,-1 -6,-1 -7,-1 -6,-2 -6,-2 -6,-2 -6,-3 -6,-3 -5,-4 -5,-3 -6,-4 -4,-5 -5,-4 -4,-5 -4,-5 -4,-5 -3,-6 -3,-5 -3,-6 -3,-6 -2,-6 -1,-7 -2,-6 v -6 l -1,-7 v -13 l 1,-6 v -7 l 2,-6 1,-6 2,-6 3,-6 3,-6 3,-6 3,-5 4,-6 4,-5 4,-5 5,-4 4,-4 6,-4 5,-4 5,-4 6,-3 6,-2 6,-3 6,-2 6,-1 7,-2 6,-1 h 13"/><path id="path132" style="fill:none;stroke:#000000;stroke-width:6;stroke-linecap:round;stroke-linejoin:round;stroke-miterlimit:10;stroke-dasharray:none;stroke-opacity:1" d="m 3260,4875.33 h 7 l 7,1 7,1 7,1 7,2 6,2 7,2 7,3 6,3 6,3 6,4 6,4 5,4 6,5 5,5 5,5 4,5 5,6 4,5 3,6 4,7 3,6 2,6 3,7 2,7 1,7 2,7 1,7 v 28 l -1,7 -2,7 -1,6 -2,7 -3,7 -2,6 -3,7 -4,6 -3,6 -4,6 -5,5 -4,6 -5,5 -5,5 -6,4 -5,4 -6,4 -6,4 -6,3 -6,4 -7,2 -7,3 -6,2 -7,1 -7,1 -7,1 -7,1 h -14 l -7,-1 -7,-1 -7,-1 -7,-1 -7,-2 -6,-3 -7,-2 -6,-4 -6,-3 -6,-4 -6,-4 -6,-4 -5,-4 -5,-5 -5,-5 -5,-6 -4,-5 -4,-6 -4,-6 -3,-6 -3,-7 -3,-6 -2,-7 -2,-7 -2,-6 -1,-7 -1,-7 v -7 l -1,-7 1,-7 v -7 l 1,-7 1,-7 2,-7 2,-7 2,-7 3,-6 3,-6 3,-7 4,-6 4,-5 4,-6 5,-5 5,-5 5,-5 5,-5 6,-4 6,-4 6,-4 6,-3 6,-3 7,-3 6,-2 7,-2 7,-2 7,-1 7,-1 7,-1 h 7"/><path id="path134" style="fill:none;stroke:#000000;stroke-width:6;stroke-linecap:round;stroke-linejoin:round;stroke-miterlimit:10;stroke-dasharray:none;stroke-opacity:1" d="m 3260,4852.33 h 8 l 7,1 8,1 8,1 7,2 8,2 7,2 7,3 7,3 7,3 7,4 7,4 6,5 6,5 6,5 5,5 6,6 5,6 5,6 4,6 4,7 4,6 4,7 3,7 2,8 3,7 2,7 2,8 1,8 1,7 1,8 v 15 l -1,8 -1,8 -1,7 -2,8 -2,7 -3,8 -2,7 -3,7 -4,7 -4,7 -4,6 -4,7 -5,6 -5,6 -6,5 -5,6 -6,5 -6,4 -6,5 -7,4 -7,4 -7,3 -7,4 -7,2 -7,3 -8,2 -7,1 -8,2 -8,1 h -7 l -8,1 -8,-1 h -8 l -7,-1 -8,-2 -7,-1 -8,-2 -7,-3 -8,-2 -7,-4 -7,-3 -6,-4 -7,-4 -6,-5 -6,-4 -6,-5 -6,-6 -5,-5 -5,-6 -5,-6 -4,-7 -5,-6 -3,-7 -4,-7 -3,-7 -3,-7 -2,-8 -2,-7 -2,-8 -1,-7 -1,-8 -1,-8 v -15 l 1,-8 1,-7 1,-8 2,-8 2,-7 2,-7 3,-8 3,-7 4,-7 3,-6 5,-7 4,-6 5,-6 5,-6 5,-6 6,-5 6,-5 6,-5 6,-5 7,-4 6,-4 7,-3 7,-3 8,-3 7,-2 8,-2 7,-2 8,-1 7,-1 8,-1 h 8"/><path id="path136" style="fill:none;stroke:#000000;stroke-width:6;stroke-linecap:round;stroke-linejoin:round;stroke-miterlimit:10;stroke-dasharray:none;stroke-opacity:1" d="m 3260,4828.33 8,1 h 8 l 8,1 8,1 8,2 8,2 8,2 8,3 7,3 7,3 8,4 7,4 7,4 6,5 7,5 6,5 6,6 6,5 5,6 6,7 4,6 5,7 4,7 4,7 4,7 4,7 3,8 2,8 3,7 2,8 1,8 1,8 1,8 1,9 v 16 l -1,8 -1,8 -1,8 -1,8 -2,8 -3,8 -2,7 -3,8 -4,7 -4,8 -4,7 -4,7 -5,6 -4,7 -6,6 -5,6 -6,6 -6,5 -6,5 -7,5 -6,5 -7,4 -7,4 -8,4 -7,3 -7,3 -8,3 -8,2 -8,2 -8,2 -8,1 -8,1 -8,1 h -16 l -8,-1 -8,-1 -8,-1 -8,-2 -8,-2 -8,-2 -8,-3 -7,-3 -8,-3 -7,-4 -7,-4 -7,-4 -7,-5 -6,-5 -6,-5 -6,-5 -6,-6 -6,-6 -5,-6 -5,-7 -4,-6 -5,-7 -4,-7 -3,-8 -4,-7 -3,-8 -2,-7 -3,-8 -2,-8 -1,-8 -2,-8 -1,-8 v -33 l 1,-8 2,-8 1,-8 2,-8 3,-7 2,-8 3,-8 4,-7 3,-7 4,-7 5,-7 4,-7 5,-6 5,-7 6,-6 6,-5 6,-6 6,-5 6,-5 7,-5 7,-4 7,-4 7,-4 8,-3 7,-3 8,-3 8,-2 8,-2 8,-2 8,-1 8,-1 h 8 l 8,-1"/><path id="path138" style="fill:none;stroke:#000000;stroke-width:6;stroke-linecap:round;stroke-linejoin:round;stroke-miterlimit:10;stroke-dasharray:none;stroke-opacity:1" d="m 3260,4805.33 h 9 l 8,1 9,1 8,1 9,2 8,2 9,2 8,3 8,3 8,3 8,4 8,4 7,4 7,5 8,5 6,5 7,6 6,6 7,6 5,6 6,7 5,7 5,7 5,7 4,8 5,8 3,7 4,8 3,9 3,8 2,8 2,9 2,8 1,9 1,8 v 35 l -1,9 -1,8 -2,9 -2,8 -2,9 -3,8 -3,8 -4,8 -3,8 -5,7 -4,8 -5,7 -5,7 -5,7 -6,7 -5,6 -7,6 -6,6 -7,6 -6,5 -8,5 -7,5 -7,4 -8,4 -8,4 -8,4 -8,3 -8,2 -9,3 -8,2 -9,1 -8,2 -9,1 h -34 l -9,-1 -9,-2 -8,-1 -9,-2 -8,-3 -8,-2 -8,-3 -8,-4 -8,-4 -8,-4 -7,-4 -8,-5 -7,-5 -7,-5 -6,-6 -7,-6 -6,-6 -6,-6 -5,-7 -6,-7 -5,-7 -4,-7 -5,-8 -4,-7 -4,-8 -3,-8 -3,-8 -3,-8 -2,-9 -2,-8 -2,-9 -1,-8 -1,-9 -1,-9 v -17 l 1,-9 1,-8 1,-9 2,-8 2,-9 2,-8 3,-8 3,-9 3,-8 4,-7 4,-8 5,-8 4,-7 5,-7 6,-7 5,-7 6,-6 6,-6 7,-6 6,-6 7,-5 7,-5 8,-5 7,-4 8,-4 8,-4 8,-3 8,-3 8,-3 8,-2 9,-2 8,-2 9,-1 9,-1 8,-1 h 9"/><path id="path140" style="fill:none;stroke:#000000;stroke-width:6;stroke-linecap:round;stroke-linejoin:round;stroke-miterlimit:10;stroke-dasharray:none;stroke-opacity:1" d="m 3260,4782.33 h 18 l 9,1 9,2 9,1 9,2 9,3 9,2 9,4 8,3 9,4 8,4 8,4 8,5 7,5 8,5 7,6 7,6 7,6 6,7 7,6 5,7 6,8 6,7 5,8 4,8 5,8 4,8 4,8 3,9 3,8 3,9 2,9 2,9 2,9 1,9 1,9 1,9 v 19 l -1,9 -1,9 -1,9 -2,9 -2,9 -2,9 -3,9 -3,9 -3,8 -4,8 -4,9 -5,8 -4,8 -5,7 -6,8 -6,7 -5,7 -7,7 -6,6 -7,6 -7,6 -7,6 -8,5 -7,5 -8,5 -8,5 -8,4 -9,3 -8,4 -9,3 -9,3 -9,2 -9,2 -9,2 -9,1 -9,1 h -9 l -9,1 -9,-1 h -9 l -10,-1 -9,-1 -9,-2 -9,-2 -9,-2 -8,-3 -9,-3 -8,-4 -9,-3 -8,-4 -8,-5 -8,-5 -8,-5 -7,-5 -7,-6 -7,-6 -7,-6 -7,-6 -6,-7 -6,-7 -5,-7 -6,-8 -5,-7 -5,-8 -4,-8 -4,-9 -4,-8 -3,-8 -3,-9 -3,-9 -3,-9 -2,-9 -1,-9 -1,-9 -1,-9 -1,-9 v -19 l 1,-9 1,-9 1,-9 1,-9 2,-9 3,-9 3,-9 3,-8 3,-9 4,-8 4,-8 4,-8 5,-8 5,-8 6,-7 5,-8 6,-7 6,-6 7,-7 7,-6 7,-6 7,-6 7,-5 8,-5 8,-5 8,-4 8,-4 9,-4 8,-3 9,-4 8,-2 9,-3 9,-2 9,-1 9,-2 10,-1 h 18"/><path id="path142" style="fill:none;stroke:#000000;stroke-width:6;stroke-linecap:round;stroke-linejoin:round;stroke-miterlimit:10;stroke-dasharray:none;stroke-opacity:1" d="m 3260,4758.33 h 9 l 10,1 10,1 9,1 10,2 9,2 9,2 10,3 9,3 9,4 9,3 8,4 9,5 8,5 9,5 7,5 8,6 8,6 7,6 7,7 7,6 7,7 6,8 6,7 5,8 6,8 5,8 5,9 4,8 4,9 4,9 3,9 4,9 2,9 3,9 2,10 1,9 2,10 1,9 v 39 l -1,10 -2,9 -1,10 -2,9 -3,9 -2,10 -4,9 -3,9 -4,9 -4,8 -4,9 -5,8 -5,8 -6,8 -5,8 -6,8 -6,7 -7,7 -7,7 -7,6 -7,7 -8,6 -8,5 -7,6 -9,5 -8,5 -9,4 -8,4 -9,4 -9,3 -9,3 -10,3 -9,2 -9,2 -10,2 -9,1 -10,1 -10,1 h -19 l -9,-1 -10,-1 -10,-1 -9,-2 -9,-2 -10,-2 -9,-3 -9,-3 -9,-3 -9,-4 -9,-4 -8,-4 -9,-5 -8,-5 -8,-6 -8,-5 -7,-6 -7,-7 -7,-6 -7,-7 -7,-7 -6,-7 -6,-8 -6,-8 -5,-8 -5,-8 -5,-8 -4,-9 -5,-8 -3,-9 -4,-9 -3,-9 -3,-10 -2,-9 -2,-9 -2,-10 -1,-9 -1,-10 v -10 l -1,-9 1,-10 v -10 l 1,-9 1,-10 2,-9 2,-10 2,-9 3,-9 3,-9 4,-9 3,-9 5,-9 4,-8 5,-9 5,-8 5,-8 6,-8 6,-7 6,-8 7,-7 7,-6 7,-7 7,-6 7,-6 8,-6 8,-5 8,-5 9,-5 8,-5 9,-4 9,-3 9,-4 9,-3 9,-3 10,-2 9,-2 9,-2 10,-1 10,-1 9,-1 h 10"/><path id="path144" style="fill:none;stroke:#000000;stroke-width:6;stroke-linecap:round;stroke-linejoin:round;stroke-miterlimit:10;stroke-dasharray:none;stroke-opacity:1" d="m 3260,4735.33 h 10 l 10,1 11,1 10,1 10,2 10,2 10,2 10,3 10,3 9,4 10,4 9,4 9,5 9,5 9,5 9,6 8,6 8,6 8,6 8,7 7,7 7,8 7,7 7,8 6,9 6,8 6,8 5,9 5,9 4,9 5,10 4,9 3,10 3,10 3,10 3,10 2,10 2,10 1,10 1,10 v 10 l 1,11 -1,10 v 10 l -1,10 -1,11 -2,10 -2,10 -3,10 -3,10 -3,9 -3,10 -4,10 -5,9 -4,9 -5,9 -5,9 -6,8 -6,9 -6,8 -7,8 -7,8 -7,7 -7,7 -8,7 -8,6 -8,7 -8,6 -9,5 -9,6 -9,5 -9,4 -9,5 -10,3 -9,4 -10,3 -10,3 -10,3 -10,2 -10,1 -10,2 -11,1 h -41 l -10,-1 -10,-2 -10,-1 -10,-2 -10,-3 -10,-3 -10,-3 -10,-4 -9,-3 -9,-5 -10,-4 -9,-5 -8,-6 -9,-5 -8,-6 -8,-7 -8,-6 -8,-7 -7,-7 -8,-7 -6,-8 -7,-8 -6,-8 -6,-9 -6,-8 -5,-9 -5,-9 -5,-9 -4,-9 -4,-10 -3,-10 -4,-9 -3,-10 -2,-10 -2,-10 -2,-10 -1,-11 -1,-10 -1,-10 v -21 l 1,-10 1,-10 1,-10 2,-10 2,-10 2,-10 3,-10 4,-10 3,-10 4,-9 4,-10 5,-9 5,-9 5,-9 6,-8 6,-8 6,-9 7,-8 6,-7 8,-8 7,-7 8,-7 8,-6 8,-6 8,-6 9,-6 8,-5 9,-5 10,-5 9,-4 9,-4 10,-4 10,-3 10,-3 10,-2 10,-2 10,-2 10,-1 10,-1 11,-1 h 10"/><path id="path146" style="fill:none;stroke:#000000;stroke-width:6;stroke-linecap:round;stroke-linejoin:round;stroke-miterlimit:10;stroke-dasharray:none;stroke-opacity:1" d="m 3260,4712.33 h 21 l 11,1 10,2 11,1 10,2 11,3 10,3 10,3 10,3 10,4 10,4 9,5 10,5 9,5 9,6 9,6 9,6 8,7 8,6 8,7 8,8 7,8 7,7 7,9 7,8 6,9 6,8 5,10 6,9 4,9 5,10 4,10 4,9 4,11 3,10 3,10 2,10 2,11 2,10 1,11 1,10 1,11 v 21 l -1,11 -1,11 -1,10 -2,11 -2,10 -2,10 -3,11 -3,10 -4,10 -4,10 -4,10 -5,9 -4,10 -6,9 -5,9 -6,9 -6,8 -7,9 -7,8 -7,8 -7,7 -8,8 -8,7 -8,7 -8,6 -9,7 -9,5 -9,6 -9,5 -10,5 -9,5 -10,4 -10,4 -10,4 -10,3 -10,3 -11,2 -10,2 -11,2 -10,1 -11,1 -10,1 h -22 l -10,-1 -11,-1 -11,-1 -10,-2 -11,-2 -10,-2 -10,-3 -10,-3 -10,-4 -10,-4 -10,-4 -10,-5 -9,-5 -9,-5 -9,-6 -9,-5 -9,-7 -8,-6 -8,-7 -8,-7 -8,-8 -7,-7 -7,-8 -7,-8 -7,-9 -6,-8 -6,-9 -6,-9 -5,-9 -5,-10 -4,-9 -5,-10 -3,-10 -4,-10 -3,-10 -3,-11 -2,-10 -3,-10 -1,-11 -2,-10 -1,-11 v -43 l 1,-10 2,-11 1,-10 3,-11 2,-10 3,-10 3,-10 4,-11 3,-9 5,-10 4,-10 5,-9 5,-9 6,-10 6,-8 6,-9 7,-8 7,-9 7,-7 7,-8 8,-8 8,-7 8,-6 8,-7 9,-6 9,-6 9,-6 9,-5 9,-5 10,-5 10,-4 10,-4 10,-3 10,-3 10,-3 10,-3 11,-2 10,-1 11,-2 11,-1 h 21"/><path id="path148" style="fill:none;stroke:#000000;stroke-width:6;stroke-linecap:round;stroke-linejoin:round;stroke-miterlimit:10;stroke-dasharray:none;stroke-opacity:1" d="m 3260,4692.33 h 11 l 11,1 h 10 l 11,2 11,1 11,2 10,3 11,3 10,3 10,3 10,4 11,4 9,5 10,4 10,6 9,5 9,6 9,6 9,6 8,7 9,7 8,7 8,8 7,8 7,8 7,8 7,9 7,8 6,9 5,10 6,9 5,9 5,10 4,10 5,10 3,10 4,11 3,10 3,10 2,11 2,11 2,10 1,11 1,11 1,11 v 22 l -1,10 -1,11 -1,11 -2,11 -2,10 -2,11 -3,10 -3,11 -4,10 -3,10 -5,10 -4,10 -5,10 -5,9 -6,10 -5,9 -6,9 -7,9 -7,8 -7,9 -7,8 -7,7 -8,8 -8,7 -9,7 -8,7 -9,6 -9,6 -9,6 -9,6 -10,5 -10,5 -9,4 -11,4 -10,4 -10,4 -10,3 -11,3 -10,2 -11,2 -11,2 -11,1 -10,1 h -11 l -11,1 -11,-1 h -11 l -11,-1 -10,-1 -11,-2 -11,-2 -10,-2 -11,-3 -10,-3 -11,-4 -10,-4 -10,-4 -10,-4 -9,-5 -10,-5 -9,-6 -9,-6 -9,-6 -9,-6 -9,-7 -8,-7 -8,-7 -8,-8 -7,-7 -8,-8 -7,-9 -6,-8 -7,-9 -6,-9 -6,-9 -5,-10 -5,-9 -5,-10 -5,-10 -4,-10 -4,-10 -3,-10 -3,-11 -3,-10 -2,-11 -2,-10 -2,-11 -1,-11 -1,-11 -1,-10 v -22 l 1,-11 1,-11 1,-11 2,-10 2,-11 2,-11 3,-10 3,-10 3,-11 4,-10 4,-10 5,-10 5,-10 5,-9 5,-9 6,-10 6,-9 7,-8 6,-9 7,-8 8,-8 7,-8 8,-8 8,-7 8,-7 9,-7 9,-6 9,-6 9,-6 9,-5 10,-6 9,-4 10,-5 10,-4 10,-4 11,-3 10,-3 11,-3 10,-3 11,-2 11,-1 10,-2 h 11 l 11,-1 h 11"/><path id="path150" style="fill:none;stroke:#000000;stroke-width:6;stroke-linecap:round;stroke-linejoin:round;stroke-miterlimit:10;stroke-dasharray:none;stroke-opacity:1" d="m 3260,4693.33 h 11 l 10,1 11,1 11,1 11,2 10,2 11,2 10,3 11,3 10,3 10,4 10,4 10,5 10,4 9,6 9,5 10,6 9,6 8,6 9,7 8,7 8,7 8,8 7,8 8,8 7,8 6,8 7,9 6,9 5,9 6,9 5,10 5,10 4,9 5,10 3,11 4,10 3,10 3,11 2,10 2,11 2,11 1,10 1,11 v 11 l 1,11 -1,10 v 11 l -1,11 -1,11 -2,10 -2,11 -2,11 -3,10 -3,10 -4,11 -3,10 -5,10 -4,10 -5,9 -5,10 -6,9 -5,9 -6,9 -7,9 -6,9 -7,8 -8,8 -7,8 -8,7 -8,7 -8,7 -9,7 -8,6 -9,7 -10,5 -9,6 -9,5 -10,5 -10,4 -10,4 -10,4 -10,4 -11,3 -10,2 -11,3 -10,2 -11,1 -11,2 -11,1 h -43 l -11,-1 -10,-2 -11,-1 -11,-2 -10,-3 -11,-2 -10,-3 -10,-4 -10,-4 -10,-4 -10,-4 -10,-5 -9,-5 -10,-6 -9,-5 -9,-7 -9,-6 -8,-7 -8,-7 -8,-7 -8,-7 -8,-8 -7,-8 -7,-8 -6,-9 -7,-9 -6,-9 -6,-9 -5,-9 -5,-10 -5,-9 -5,-10 -4,-10 -4,-10 -3,-11 -3,-10 -3,-10 -2,-11 -2,-11 -2,-10 -1,-11 -1,-11 -1,-11 v -21 l 1,-11 1,-11 1,-10 2,-11 2,-11 2,-10 3,-11 3,-10 3,-10 4,-11 4,-10 5,-9 5,-10 5,-10 5,-9 6,-9 6,-9 7,-9 6,-8 7,-8 7,-8 8,-8 8,-8 8,-7 8,-7 8,-7 9,-6 9,-6 9,-6 10,-5 9,-6 10,-4 10,-5 10,-4 10,-4 10,-3 10,-3 11,-3 10,-2 11,-2 11,-2 10,-1 11,-1 11,-1 h 11"/><path id="path152" style="fill:none;stroke:#000000;stroke-width:6;stroke-linecap:round;stroke-linejoin:round;stroke-miterlimit:10;stroke-dasharray:none;stroke-opacity:1" d="m 3260,4693.33 h 11 l 10,1 11,1 11,1 11,2 10,2 11,2 10,3 11,3 10,3 10,4 10,4 10,5 10,4 9,6 9,5 10,6 9,6 8,6 9,7 8,7 8,7 8,8 7,8 8,8 7,8 6,8 7,9 6,9 5,9 6,9 5,10 5,10 4,9 5,10 3,11 4,10 3,10 3,11 2,10 2,11 2,11 1,10 1,11 v 11 l 1,11 -1,10 v 11 l -1,11 -1,11 -2,10 -2,11 -2,11 -3,10 -3,10 -4,11 -3,10 -5,10 -4,10 -5,9 -5,10 -6,9 -5,9 -6,9 -7,9 -6,9 -7,8 -8,8 -7,8 -8,7 -8,7 -8,7 -9,7 -8,6 -9,7 -10,5 -9,6 -9,5 -10,5 -10,4 -10,4 -10,4 -10,4 -11,3 -10,2 -11,3 -10,2 -11,1 -11,2 -11,1 h -43 l -11,-1 -10,-2 -11,-1 -11,-2 -10,-3 -11,-2 -10,-3 -10,-4 -10,-4 -10,-4 -10,-4 -10,-5 -9,-5 -10,-6 -9,-5 -9,-7 -9,-6 -8,-7 -8,-7 -8,-7 -8,-7 -8,-8 -7,-8 -7,-8 -6,-9 -7,-9 -6,-9 -6,-9 -5,-9 -5,-10 -5,-9 -5,-10 -4,-10 -4,-10 -3,-11 -3,-10 -3,-10 -2,-11 -2,-11 -2,-10 -1,-11 -1,-11 -1,-11 v -21 l 1,-11 1,-11 1,-10 2,-11 2,-11 2,-10 3,-11 3,-10 3,-10 4,-11 4,-10 5,-9 5,-10 5,-10 5,-9 6,-9 6,-9 7,-9 6,-8 7,-8 7,-8 8,-8 8,-8 8,-7 8,-7 8,-7 9,-6 9,-6 9,-6 10,-5 9,-6 10,-4 10,-5 10,-4 10,-4 10,-3 10,-3 11,-3 10,-2 11,-2 11,-2 10,-1 11,-1 11,-1 h 11"/><path id="path154" style="fill:none;stroke:#000000;stroke-width:6;stroke-linecap:round;stroke-linejoin:round;stroke-miterlimit:10;stroke-dasharray:none;stroke-opacity:1" d="m 3260,4694.33 h 11 l 11,1 11,1 11,1 11,2 10,2 11,3 11,2 10,4 11,3 10,4 10,4 10,5 10,5 10,5 9,6 9,6 9,6 9,7 9,7 8,7 8,8 8,7 7,9 8,8 7,8 6,9 6,9 6,9 6,10 5,10 5,9 5,10 4,10 4,11 4,10 3,11 3,10 3,11 2,11 1,11 2,11 1,11 v 44 l -1,11 -2,11 -1,10 -2,11 -3,11 -3,11 -3,10 -4,11 -4,10 -4,10 -5,10 -5,10 -5,9 -6,10 -6,9 -6,9 -6,9 -7,9 -8,8 -7,8 -8,8 -8,7 -8,7 -9,7 -9,7 -9,6 -9,6 -9,6 -10,5 -10,5 -10,5 -10,4 -10,4 -11,4 -10,3 -11,3 -11,2 -10,2 -11,2 -11,1 -11,1 -11,1 h -22 l -11,-1 -11,-1 -11,-1 -11,-2 -11,-2 -10,-2 -11,-3 -11,-3 -10,-4 -10,-4 -10,-4 -10,-5 -10,-5 -10,-5 -9,-6 -10,-6 -9,-6 -8,-7 -9,-7 -8,-7 -8,-7 -8,-8 -8,-8 -7,-8 -7,-9 -6,-9 -7,-9 -6,-9 -5,-10 -6,-9 -5,-10 -4,-10 -5,-10 -4,-10 -3,-11 -3,-10 -3,-11 -3,-11 -2,-11 -2,-10 -1,-11 -1,-11 v -11 l -1,-11 1,-11 v -11 l 1,-11 1,-11 2,-11 2,-11 3,-11 3,-10 3,-11 3,-10 4,-11 5,-10 4,-10 5,-9 6,-10 5,-10 6,-9 7,-9 6,-9 7,-8 7,-8 8,-9 8,-7 8,-8 8,-7 9,-7 8,-7 9,-6 10,-6 9,-6 10,-5 10,-5 10,-5 10,-4 10,-4 10,-3 11,-4 11,-2 10,-3 11,-2 11,-2 11,-1 11,-1 11,-1 h 11"/><path id="path156" style="fill:none;stroke:#000000;stroke-width:6;stroke-linecap:round;stroke-linejoin:round;stroke-miterlimit:10;stroke-dasharray:none;stroke-opacity:1" d="m 3260,4691.33 h 22 l 10,1 11,2 11,1 11,2 10,3 11,2 10,4 11,3 10,4 10,4 10,5 10,4 9,6 10,5 9,6 9,6 9,6 8,7 9,7 8,8 7,7 8,8 7,8 7,8 7,9 7,9 6,9 5,9 6,9 5,10 5,10 5,10 4,10 4,10 3,10 3,11 3,10 2,11 2,10 2,11 1,11 1,11 1,11 v 22 l -1,10 -1,11 -1,11 -2,11 -2,11 -2,10 -3,11 -3,10 -3,11 -4,10 -4,10 -5,10 -5,9 -5,10 -6,9 -5,10 -6,9 -7,8 -7,9 -7,8 -7,8 -8,8 -7,8 -8,7 -9,7 -8,7 -9,6 -9,6 -9,6 -10,6 -9,5 -10,5 -10,4 -10,4 -10,4 -11,4 -10,3 -11,3 -10,2 -11,2 -11,2 -11,1 -10,1 -11,1 h -22 l -11,-1 -11,-1 -11,-1 -10,-2 -11,-2 -11,-2 -10,-3 -11,-3 -10,-4 -10,-4 -10,-4 -10,-4 -10,-5 -10,-5 -9,-6 -9,-6 -9,-6 -9,-6 -8,-7 -9,-7 -8,-7 -8,-8 -7,-8 -8,-8 -7,-8 -6,-9 -7,-8 -6,-9 -6,-10 -5,-9 -5,-10 -5,-9 -5,-10 -4,-10 -4,-10 -3,-11 -3,-10 -3,-11 -3,-10 -2,-11 -1,-11 -2,-11 v -11 l -1,-10 v -22 l 1,-11 v -11 l 2,-11 1,-11 2,-10 3,-11 3,-10 3,-11 3,-10 4,-10 4,-10 5,-10 5,-10 5,-10 5,-9 6,-9 6,-9 7,-9 6,-9 7,-8 8,-8 7,-8 8,-7 8,-8 9,-7 8,-7 9,-6 9,-6 9,-6 9,-5 10,-6 10,-4 10,-5 10,-4 10,-4 10,-3 11,-4 10,-2 11,-3 11,-2 10,-1 11,-2 11,-1 h 22"/><path id="path158" style="fill:#000000;fill-opacity:1;fill-rule:evenodd;stroke:none" d="m 3371,5007.33 h 207 v 5 h -207 z"/><path id="path160" style="fill:#000000;fill-opacity:1;fill-rule:evenodd;stroke:none" d="m 3258,5121.33 h 4 v 207 h -4 z"/><path id="path162" style="fill:#000000;fill-opacity:1;fill-rule:evenodd;stroke:none" d="m 3258,4692.33 h 4 v 207 h -4 z"/><path id="path164" style="fill:none;stroke:#000000;stroke-width:6;stroke-linecap:round;stroke-linejoin:round;stroke-miterlimit:10;stroke-dasharray:none;stroke-opacity:1" d="m 3555,5192.33 -9,12 -10,12 -10,12 -10,12 -11,11 -11,11 -11,10 -12,10 -12,10 -12,10"/><path id="path166" style="fill:none;stroke:#000000;stroke-width:6;stroke-linecap:round;stroke-linejoin:round;stroke-miterlimit:10;stroke-dasharray:none;stroke-opacity:1" d="m 3503,5238.33 h 2 l 2,1 3,1 2,1 1,1 2,2 1,2 1,2 v 3 l 1,2 -1,2 v 2 l -1,2 -1,2 -2,2 -1,2 -2,1 -3,1 h -9 l -2,-1 -2,-1 -1,-2 -2,-2 -1,-2 -1,-2 v -2 l -1,-2 1,-2 v -3 l 1,-2 1,-2 2,-2 1,-1 2,-1 2,-1 3,-1 h 2"/><path id="path168" style="fill:none;stroke:#000000;stroke-width:6;stroke-linecap:round;stroke-linejoin:round;stroke-miterlimit:10;stroke-dasharray:none;stroke-opacity:1" d="m 3520,5253.33 -9,-15 h -16 l -9,15 9,14 h 16 l 9,-14"/><path id="path170" style="fill:#000000;fill-opacity:1;fill-rule:evenodd;stroke:none" d="m 3501,5216.33 32,37 4,-3 -33,-37"/><path id="path172" style="fill:#000000;fill-opacity:1;fill-rule:evenodd;stroke:none" d="m 3468,5250.33 32,36 4,-3 -33,-36"/><path id="path174" style="fill:#000000;fill-opacity:1;fill-rule:evenodd;stroke:none" d="m 3533,5250.33 -16,17 4,4 16,-17"/><path id="path176" style="fill:#000000;fill-opacity:1;fill-rule:evenodd;stroke:none" d="m 3517,5267.33 -17,16 4,3 17,-15"/><path id="path178" style="fill:none;stroke:#000000;stroke-width:6;stroke-linecap:round;stroke-linejoin:round;stroke-miterlimit:10;stroke-dasharray:none;stroke-opacity:1" d="m 3442,4714.33 13,10 12,9 11,10 12,11 11,11 11,11 10,11 11,12 9,12 10,12"/><path id="path180" style="fill:none;stroke:#000000;stroke-width:6;stroke-linecap:round;stroke-linejoin:round;stroke-miterlimit:10;stroke-dasharray:none;stroke-opacity:1" d="m 3503,4752.33 h 2 l 2,1 3,1 2,1 1,1 2,2 1,2 1,2 v 2 l 1,3 -1,2 v 2 l -1,2 -1,2 -2,2 -1,1 -2,2 h -3 l -2,1 h -4 l -3,-1 h -2 l -2,-2 -1,-1 -2,-2 -1,-2 -1,-2 v -2 l -1,-2 1,-3 v -2 l 1,-2 1,-2 2,-2 1,-1 2,-1 2,-1 3,-1 h 2"/><path id="path182" style="fill:none;stroke:#000000;stroke-width:6;stroke-linecap:round;stroke-linejoin:round;stroke-miterlimit:10;stroke-dasharray:none;stroke-opacity:1" d="m 3503,4750.33 -15,8 v 17 l 15,8 15,-8 v -17 l -15,-8"/><path id="path184" style="fill:#000000;fill-opacity:1;fill-rule:evenodd;stroke:none" d="m 3467,4769.33 37,-33 -3,-3 -37,32"/><path id="path186" style="fill:#000000;fill-opacity:1;fill-rule:evenodd;stroke:none" d="m 3501,4802.33 35,-33 -3,-3 -36,33"/><path id="path188" style="fill:#000000;fill-opacity:1;fill-rule:evenodd;stroke:none" d="m 3500,4736.33 17,16 4,-3 -17,-16"/><path id="path190" style="fill:#000000;fill-opacity:1;fill-rule:evenodd;stroke:none" d="m 3517,4752.33 16,17 3,-3 -15,-17"/><path id="path192" style="fill:none;stroke:#000000;stroke-width:6;stroke-linecap:round;stroke-linejoin:round;stroke-miterlimit:10;stroke-dasharray:none;stroke-opacity:1" d="m 3017,4752.33 h 2 l 2,1 2,1 2,1 2,1 2,2 1,2 1,2 v 9 l -1,2 -1,2 -2,2 -2,1 -2,2 h -2 l -2,1 h -5 l -2,-1 h -2 l -2,-2 -2,-1 -1,-2 -1,-2 -1,-2 -1,-2 v -5 l 1,-2 1,-2 1,-2 1,-2 2,-1 2,-1 2,-1 2,-1 h 3"/><path id="path194" style="fill:none;stroke:#000000;stroke-width:6;stroke-linecap:round;stroke-linejoin:round;stroke-miterlimit:10;stroke-dasharray:none;stroke-opacity:1" d="m 3000,4767.33 8,14 h 17 l 9,-14 -9,-15 h -17 l -8,15"/><path id="path196" style="fill:#000000;fill-opacity:1;fill-rule:evenodd;stroke:none" d="m 3019,4803.33 -32,-37 -4,3 32,37"/><path id="path198" style="fill:#000000;fill-opacity:1;fill-rule:evenodd;stroke:none" d="m 3052,4769.33 -33,-36 -3,3 33,36"/><path id="path200" style="fill:#000000;fill-opacity:1;fill-rule:evenodd;stroke:none" d="m 2986,4769.33 16,-17 -3,-3 -16,17"/><path id="path202" style="fill:#000000;fill-opacity:1;fill-rule:evenodd;stroke:none" d="m 3002,4752.33 17,-15 -3,-4 -17,16"/><path id="path204" style="fill:none;stroke:#000000;stroke-width:6;stroke-linecap:round;stroke-linejoin:round;stroke-miterlimit:10;stroke-dasharray:none;stroke-opacity:1" d="m 3078,5305.33 -13,-9 -12,-10 -12,-10 -11,-10 -11,-11 -11,-11 -11,-12 -10,-11 -10,-12 -9,-12"/><path id="path206" style="fill:none;stroke:#000000;stroke-width:6;stroke-linecap:round;stroke-linejoin:round;stroke-miterlimit:10;stroke-dasharray:none;stroke-opacity:1" d="m 3017,5238.33 h 2 l 2,1 2,1 2,1 2,1 2,2 1,2 1,2 v 9 l -1,2 -1,2 -2,2 -2,2 -2,1 -2,1 h -9 l -2,-1 -2,-1 -2,-2 -1,-2 -1,-2 -1,-2 -1,-2 v -4 l 1,-3 1,-2 1,-2 1,-2 2,-1 2,-1 2,-1 2,-1 h 3"/><path id="path208" style="fill:none;stroke:#000000;stroke-width:6;stroke-linecap:round;stroke-linejoin:round;stroke-miterlimit:10;stroke-dasharray:none;stroke-opacity:1" d="m 3017,5270.33 14,-9 v -17 l -14,-8 -15,8 v 17 l 15,9"/><path id="path210" style="fill:#000000;fill-opacity:1;fill-rule:evenodd;stroke:none" d="m 3053,5251.33 -37,32 3,4 37,-33"/><path id="path212" style="fill:#000000;fill-opacity:1;fill-rule:evenodd;stroke:none" d="m 3019,5217.33 -36,33 3,4 36,-33"/><path id="path214" style="fill:#000000;fill-opacity:1;fill-rule:evenodd;stroke:none" d="m 3019,5283.33 -17,-16 -3,4 17,15"/><path id="path216" style="fill:#000000;fill-opacity:1;fill-rule:evenodd;stroke:none" d="m 3002,5267.33 -15,-17 -4,3 16,18"/><path id="path218" style="fill:none;stroke:#000000;stroke-width:6;stroke-linecap:round;stroke-linejoin:round;stroke-miterlimit:10;stroke-dasharray:none;stroke-opacity:1" d="m 2968,4823.33 9,-12 10,-12 10,-12 11,-11 11,-11 11,-11 11,-11 12,-10 12,-9 13,-10"/><path id="path220" style="fill:#000000;fill-opacity:1;fill-rule:evenodd;stroke:none" d="m 2942,5007.33 h 207 v 5 h -207 z"/></g></g></svg>