<?xml version="1.0" encoding="UTF-8" standalone="no"?><svg xmlns:dc="http://purl.org/dc/elements/1.1/" xmlns:cc="http://creativecommons.org/ns#" xmlns:rdf="http://www.w3.org/1999/02/22-rdf-syntax-ns#" xmlns:svg="http://www.w3.org/2000/svg" xmlns="http://www.w3.org/2000/svg" xml:space="preserve" id="svg2" version="1.1" viewBox="0 0 793.70667 1122.52"><metadata id="metadata8"><rdf:RDF><cc:Work rdf:about=""><dc:format>image/svg+xml</dc:format><dc:type rdf:resource="http://purl.org/dc/dcmitype/StillImage"/></cc:Work></rdf:RDF></metadata><defs id="defs6"/><g transform="matrix(1.3333333,0,0,-1.3333333,0,1122.52)" id="g10"><g transform="scale(0.12)" id="g12"><path id="path14" style="fill:none;stroke:#000000;stroke-width:6;stroke-linecap:round;stroke-linejoin:round;stroke-miterlimit:10;stroke-dasharray:none;stroke-opacity:1" d="m 3867,3242.33 h 50 l -50,-19 50,-20 h -50"/><path id="path16" style="fill:none;stroke:#000000;stroke-width:6;stroke-linecap:round;stroke-linejoin:round;stroke-miterlimit:10;stroke-dasharray:none;stroke-opacity:1" d="m 3910,3155.33 5,3 2,7 v 5 l -2,7 -7,5 -12,2 h -12 l -10,-2 -5,-5 -2,-7 v -3 l 2,-7 5,-5 7,-2 h 3 l 7,2 5,5 2,7 v 3 l -2,7 -5,5 -7,2"/><path id="path18" style="fill:none;stroke:#000000;stroke-width:6;stroke-linecap:round;stroke-linejoin:round;stroke-miterlimit:10;stroke-dasharray:none;stroke-opacity:1" d="m 3917,3131.33 v -26 l -19,14 v -7 l -2,-5 -3,-2 -7,-3 h -5 l -7,3 -5,5 -2,7 v 7 l 2,7 3,3 4,2"/><path id="path20" style="fill:none;stroke:#000000;stroke-width:6;stroke-linecap:round;stroke-linejoin:round;stroke-miterlimit:10;stroke-dasharray:none;stroke-opacity:1" d="m 3867,3088.33 50,-34"/><path id="path22" style="fill:none;stroke:#000000;stroke-width:6;stroke-linecap:round;stroke-linejoin:round;stroke-miterlimit:10;stroke-dasharray:none;stroke-opacity:1" d="m 3917,3088.33 -50,-34"/><path id="path24" style="fill:none;stroke:#000000;stroke-width:6;stroke-linecap:round;stroke-linejoin:round;stroke-miterlimit:10;stroke-dasharray:none;stroke-opacity:1" d="m 3908,3040.33 2,-5 7,-7 h -50"/><path id="path26" style="fill:none;stroke:#000000;stroke-width:6;stroke-linecap:round;stroke-linejoin:round;stroke-miterlimit:10;stroke-dasharray:none;stroke-opacity:1" d="m 3872,2999.33 -3,2 -2,-2 2,-2"/><path id="path28" style="fill:none;stroke:#000000;stroke-width:6;stroke-linecap:round;stroke-linejoin:round;stroke-miterlimit:10;stroke-dasharray:none;stroke-opacity:1" d="m 3917,2948.33 v 25 l -21,2 2,-2 2,-8 v -7 l -2,-7 -5,-5 -7,-2 h -5 l -7,2 -5,5 -2,7 v 7 l 2,8 3,2 4,2"/><path id="path30" style="fill:none;stroke:#000000;stroke-width:6;stroke-linecap:round;stroke-linejoin:round;stroke-miterlimit:10;stroke-dasharray:none;stroke-opacity:1" d="m 3867,2929.33 h 50 v -21 l -2,-8 -2,-2 -5,-2 h -8 l -4,2 -3,2 -2,8 v 21"/><path id="path32" style="fill:none;stroke:#000000;stroke-width:6;stroke-linecap:round;stroke-linejoin:round;stroke-miterlimit:10;stroke-dasharray:none;stroke-opacity:1" d="m 3888,2879.33 v -43"/><path id="path34" style="fill:none;stroke:#000000;stroke-width:6;stroke-linecap:round;stroke-linejoin:round;stroke-miterlimit:10;stroke-dasharray:none;stroke-opacity:1" d="m 3917,2802.33 -2,7 -7,5 -12,2 h -8 l -12,-2 -7,-5 -2,-7 v -5 l 2,-7 7,-5 12,-2 h 8 l 12,2 7,5 2,7 v 5"/><path id="path36" style="fill:none;stroke:#000000;stroke-width:6;stroke-linecap:round;stroke-linejoin:round;stroke-miterlimit:10;stroke-dasharray:none;stroke-opacity:1" d="m 3905,2766.33 h 3 l 5,-3 2,-2 2,-5 v -9 l -2,-5 -2,-3 -5,-2 h -5 l -5,2 -7,5 -24,24 v -33"/><path id="path38" style="fill:none;stroke:#000000;stroke-width:6;stroke-linecap:round;stroke-linejoin:round;stroke-miterlimit:10;stroke-dasharray:none;stroke-opacity:1" d="m 3867,2674.33 h 50 l -50,-33 h 50"/><path id="path40" style="fill:none;stroke:#000000;stroke-width:6;stroke-linecap:round;stroke-linejoin:round;stroke-miterlimit:10;stroke-dasharray:none;stroke-opacity:1" d="m 3917,2607.33 -2,5 -5,5 -5,2 -7,3 h -12 l -7,-3 -5,-2 -5,-5 -2,-5 v -9 l 2,-5 5,-5 5,-2 7,-3 h 12 l 7,3 5,2 5,5 2,5 v 9"/><path id="path42" style="fill:none;stroke:#000000;stroke-width:6;stroke-linecap:round;stroke-linejoin:round;stroke-miterlimit:10;stroke-dasharray:none;stroke-opacity:1" d="m 3910,2535.33 5,5 2,7 v 10 l -2,7 -5,5 h -5 l -5,-3 -2,-2 -2,-5 -5,-14 -3,-5 -2,-3 -5,-2 h -7 l -5,5 -2,7 v 10 l 2,7 5,5"/><path id="path44" style="fill:none;stroke:#000000;stroke-width:6;stroke-linecap:round;stroke-linejoin:round;stroke-miterlimit:10;stroke-dasharray:none;stroke-opacity:1" d="m 3872,2518.33 -3,3 -2,-3 2,-2"/><path id="path46" style="fill:none;stroke:#000000;stroke-width:6;stroke-linecap:round;stroke-linejoin:round;stroke-miterlimit:10;stroke-dasharray:none;stroke-opacity:1" d="m 3857,3242.33 v -745"/><path id="path48" style="fill:none;stroke:#000000;stroke-width:6;stroke-linecap:round;stroke-linejoin:round;stroke-miterlimit:10;stroke-dasharray:none;stroke-opacity:1" d="m 3821,3206.33 5,2 5,5 2,5 v 9 l -2,5 -5,5 -5,2 -7,3 h -12 l -7,-3 -5,-2 -5,-5 -2,-5 v -9 l 2,-5 5,-5 5,-2"/><path id="path50" style="fill:none;stroke:#000000;stroke-width:6;stroke-linecap:round;stroke-linejoin:round;stroke-miterlimit:10;stroke-dasharray:none;stroke-opacity:1" d="m 3783,3191.33 50,-19 -50,-19"/><path id="path52" style="fill:none;stroke:#000000;stroke-width:6;stroke-linecap:round;stroke-linejoin:round;stroke-miterlimit:10;stroke-dasharray:none;stroke-opacity:1" d="m 3800,3184.33 v -24"/><path id="path54" style="fill:none;stroke:#000000;stroke-width:6;stroke-linecap:round;stroke-linejoin:round;stroke-miterlimit:10;stroke-dasharray:none;stroke-opacity:1" d="m 3783,3138.33 h 50 v -21 l -2,-7 -3,-3 -4,-2 h -5 l -5,2 -2,3 -3,7"/><path id="path56" style="fill:none;stroke:#000000;stroke-width:6;stroke-linecap:round;stroke-linejoin:round;stroke-miterlimit:10;stroke-dasharray:none;stroke-opacity:1" d="m 3809,3138.33 v -21 l -2,-7 -3,-3 -4,-2 h -8 l -4,2 -3,3 -2,7 v 21"/><path id="path58" style="fill:none;stroke:#000000;stroke-width:6;stroke-linecap:round;stroke-linejoin:round;stroke-miterlimit:10;stroke-dasharray:none;stroke-opacity:1" d="m 3833,3088.33 h -50 v -29"/><path id="path60" style="fill:none;stroke:#000000;stroke-width:6;stroke-linecap:round;stroke-linejoin:round;stroke-miterlimit:10;stroke-dasharray:none;stroke-opacity:1" d="m 3783,3047.33 h 50 v -31"/><path id="path62" style="fill:none;stroke:#000000;stroke-width:6;stroke-linecap:round;stroke-linejoin:round;stroke-miterlimit:10;stroke-dasharray:none;stroke-opacity:1" d="m 3809,3047.33 v -19"/><path id="path64" style="fill:none;stroke:#000000;stroke-width:6;stroke-linecap:round;stroke-linejoin:round;stroke-miterlimit:10;stroke-dasharray:none;stroke-opacity:1" d="m 3783,3047.33 v -31"/><path id="path66" style="fill:none;stroke:#000000;stroke-width:6;stroke-linecap:round;stroke-linejoin:round;stroke-miterlimit:10;stroke-dasharray:none;stroke-opacity:1" d="m 3783,2956.33 h 50 v -32"/><path id="path68" style="fill:none;stroke:#000000;stroke-width:6;stroke-linecap:round;stroke-linejoin:round;stroke-miterlimit:10;stroke-dasharray:none;stroke-opacity:1" d="m 3809,2956.33 v -20"/><path id="path70" style="fill:none;stroke:#000000;stroke-width:6;stroke-linecap:round;stroke-linejoin:round;stroke-miterlimit:10;stroke-dasharray:none;stroke-opacity:1" d="m 3783,2956.33 v -32"/><path id="path72" style="fill:none;stroke:#000000;stroke-width:6;stroke-linecap:round;stroke-linejoin:round;stroke-miterlimit:10;stroke-dasharray:none;stroke-opacity:1" d="m 3783,2910.33 h 50 l -50,-34 h 50"/><path id="path74" style="fill:none;stroke:#000000;stroke-width:6;stroke-linecap:round;stroke-linejoin:round;stroke-miterlimit:10;stroke-dasharray:none;stroke-opacity:1" d="m 3833,2840.33 h -50"/><path id="path76" style="fill:none;stroke:#000000;stroke-width:6;stroke-linecap:round;stroke-linejoin:round;stroke-miterlimit:10;stroke-dasharray:none;stroke-opacity:1" d="m 3833,2857.33 v -33"/><path id="path78" style="fill:none;stroke:#000000;stroke-width:6;stroke-linecap:round;stroke-linejoin:round;stroke-miterlimit:10;stroke-dasharray:none;stroke-opacity:1" d="m 3783,2814.33 h 50 v -22 l -2,-7 -3,-2 -4,-3 h -5 l -5,3 -2,2 -3,7 v 22"/><path id="path80" style="fill:none;stroke:#000000;stroke-width:6;stroke-linecap:round;stroke-linejoin:round;stroke-miterlimit:10;stroke-dasharray:none;stroke-opacity:1" d="m 3809,2797.33 -26,-17"/><path id="path82" style="fill:none;stroke:#000000;stroke-width:6;stroke-linecap:round;stroke-linejoin:round;stroke-miterlimit:10;stroke-dasharray:none;stroke-opacity:1" d="m 3833,2763.33 -24,-19 24,-19"/><path id="path84" style="fill:none;stroke:#000000;stroke-width:6;stroke-linecap:round;stroke-linejoin:round;stroke-miterlimit:10;stroke-dasharray:none;stroke-opacity:1" d="m 3809,2744.33 h -26"/><path id="path86" style="fill:none;stroke:#000000;stroke-width:6;stroke-linecap:round;stroke-linejoin:round;stroke-miterlimit:10;stroke-dasharray:none;stroke-opacity:1" d="m 3773,3242.33 v -527"/><path id="path88" style="fill:none;stroke:#000000;stroke-width:6;stroke-linecap:round;stroke-linejoin:round;stroke-miterlimit:10;stroke-dasharray:none;stroke-opacity:1" d="m 3887,3336.33 v -69"/><path id="path90" style="fill:#000000;fill-opacity:1;fill-rule:evenodd;stroke:none" d="m 3623,3590.33 -29,42 41,-30"/><path id="path92" style="fill:none;stroke:#000000;stroke-width:6;stroke-linecap:round;stroke-linejoin:round;stroke-miterlimit:10;stroke-dasharray:none;stroke-opacity:1" d="m 3629,3596.33 258,-260"/><path id="path94" style="fill:none;stroke:#000000;stroke-width:6;stroke-linecap:round;stroke-linejoin:round;stroke-miterlimit:10;stroke-dasharray:none;stroke-opacity:1" d="m 3358,3511.33 v 108"/><path id="path96" style="fill:none;stroke:#000000;stroke-width:6;stroke-linecap:round;stroke-linejoin:round;stroke-miterlimit:10;stroke-dasharray:none;stroke-opacity:1" d="m 3358,3638.33 v 19"/><path id="path98" style="fill:none;stroke:#000000;stroke-width:6;stroke-linecap:round;stroke-linejoin:round;stroke-miterlimit:10;stroke-dasharray:none;stroke-opacity:1" d="m 3358,3677.33 v 107"/><path id="path100" style="fill:none;stroke:#000000;stroke-width:6;stroke-linecap:round;stroke-linejoin:round;stroke-miterlimit:10;stroke-dasharray:none;stroke-opacity:1" d="m 1332,3629.33 v 3"/><path id="path102" style="fill:none;stroke:#000000;stroke-width:6;stroke-linecap:round;stroke-linejoin:round;stroke-miterlimit:10;stroke-dasharray:none;stroke-opacity:1" d="m 1319,3629.33 v 3"/><path id="path104" style="fill:none;stroke:#000000;stroke-width:6;stroke-linecap:round;stroke-linejoin:round;stroke-miterlimit:10;stroke-dasharray:none;stroke-opacity:1" d="m 1198,3655.33 v 7"/><path id="path106" style="fill:none;stroke:#000000;stroke-width:6;stroke-linecap:round;stroke-linejoin:round;stroke-miterlimit:10;stroke-dasharray:none;stroke-opacity:1" d="m 1198,3655.33 10,-4 11,-4 11,-4 11,-3 11,-3 11,-2 11,-2 12,-2 11,-1 11,-1 h 35 l 11,1 11,1 12,2 11,2 11,2 11,3 11,3 11,4 11,4 10,5"/><path id="path108" style="fill:none;stroke:#000000;stroke-width:6;stroke-linecap:round;stroke-linejoin:round;stroke-miterlimit:10;stroke-dasharray:none;stroke-opacity:1" d="m 1292,3634.33 5,-1 h 4"/><path id="path110" style="fill:none;stroke:#000000;stroke-width:6;stroke-linecap:round;stroke-linejoin:round;stroke-miterlimit:10;stroke-dasharray:none;stroke-opacity:1" d="m 1306,3633.33 5,-1 h 5"/><path id="path112" style="fill:none;stroke:#000000;stroke-width:6;stroke-linecap:round;stroke-linejoin:round;stroke-miterlimit:10;stroke-dasharray:none;stroke-opacity:1" d="m 1321,3632.33 h 9"/><path id="path114" style="fill:none;stroke:#000000;stroke-width:6;stroke-linecap:round;stroke-linejoin:round;stroke-miterlimit:10;stroke-dasharray:none;stroke-opacity:1" d="m 1335,3632.33 h 5 l 5,1"/><path id="path116" style="fill:none;stroke:#000000;stroke-width:6;stroke-linecap:round;stroke-linejoin:round;stroke-miterlimit:10;stroke-dasharray:none;stroke-opacity:1" d="m 1350,3633.33 h 4 l 5,1"/><path id="path118" style="fill:none;stroke:#000000;stroke-width:6;stroke-linecap:round;stroke-linejoin:round;stroke-miterlimit:10;stroke-dasharray:none;stroke-opacity:1" d="m 1359,3630.33 v 4"/><path id="path120" style="fill:none;stroke:#000000;stroke-width:6;stroke-linecap:round;stroke-linejoin:round;stroke-miterlimit:10;stroke-dasharray:none;stroke-opacity:1" d="m 1292,3630.33 v 4"/><path id="path122" style="fill:none;stroke:#000000;stroke-width:6;stroke-linecap:round;stroke-linejoin:round;stroke-miterlimit:10;stroke-dasharray:none;stroke-opacity:1" d="m 1453,3655.33 v 7"/><path id="path124" style="fill:none;stroke:#000000;stroke-width:6;stroke-linecap:round;stroke-linejoin:round;stroke-miterlimit:10;stroke-dasharray:none;stroke-opacity:1" d="M 1453,3662.33 H 1198"/><path id="path126" style="fill:none;stroke:#000000;stroke-width:6;stroke-linecap:round;stroke-linejoin:round;stroke-miterlimit:10;stroke-dasharray:none;stroke-opacity:1" d="m 3125,3511.33 v 108"/><path id="path128" style="fill:none;stroke:#000000;stroke-width:6;stroke-linecap:round;stroke-linejoin:round;stroke-miterlimit:10;stroke-dasharray:none;stroke-opacity:1" d="m 3125,3638.33 v 19"/><path id="path130" style="fill:none;stroke:#000000;stroke-width:6;stroke-linecap:round;stroke-linejoin:round;stroke-miterlimit:10;stroke-dasharray:none;stroke-opacity:1" d="m 3125,3677.33 v 107"/><path id="path132" style="fill:none;stroke:#000000;stroke-width:6;stroke-linecap:round;stroke-linejoin:round;stroke-miterlimit:10;stroke-dasharray:none;stroke-opacity:1" d="m 3132,3629.33 v 3"/><path id="path134" style="fill:none;stroke:#000000;stroke-width:6;stroke-linecap:round;stroke-linejoin:round;stroke-miterlimit:10;stroke-dasharray:none;stroke-opacity:1" d="m 3119,3629.33 v 3"/><path id="path136" style="fill:none;stroke:#000000;stroke-width:6;stroke-linecap:round;stroke-linejoin:round;stroke-miterlimit:10;stroke-dasharray:none;stroke-opacity:1" d="m 2997,3655.33 v 7"/><path id="path138" style="fill:none;stroke:#000000;stroke-width:6;stroke-linecap:round;stroke-linejoin:round;stroke-miterlimit:10;stroke-dasharray:none;stroke-opacity:1" d="m 2997,3655.33 11,-4 11,-4 10,-4 11,-3 12,-3 11,-2 11,-2 11,-2 12,-1 11,-1 h 34 l 12,1 11,1 12,2 11,2 11,2 11,3 11,3 11,4 11,4 10,5"/><path id="path140" style="fill:none;stroke:#000000;stroke-width:6;stroke-linecap:round;stroke-linejoin:round;stroke-miterlimit:10;stroke-dasharray:none;stroke-opacity:1" d="m 3092,3634.33 4,-1 h 5"/><path id="path142" style="fill:none;stroke:#000000;stroke-width:6;stroke-linecap:round;stroke-linejoin:round;stroke-miterlimit:10;stroke-dasharray:none;stroke-opacity:1" d="m 3106,3633.33 5,-1 h 5"/><path id="path144" style="fill:none;stroke:#000000;stroke-width:6;stroke-linecap:round;stroke-linejoin:round;stroke-miterlimit:10;stroke-dasharray:none;stroke-opacity:1" d="m 3120,3632.33 h 10"/><path id="path146" style="fill:none;stroke:#000000;stroke-width:6;stroke-linecap:round;stroke-linejoin:round;stroke-miterlimit:10;stroke-dasharray:none;stroke-opacity:1" d="m 3135,3632.33 h 5 l 5,1"/><path id="path148" style="fill:none;stroke:#000000;stroke-width:6;stroke-linecap:round;stroke-linejoin:round;stroke-miterlimit:10;stroke-dasharray:none;stroke-opacity:1" d="m 3150,3633.33 h 4 l 5,1"/><path id="path150" style="fill:none;stroke:#000000;stroke-width:6;stroke-linecap:round;stroke-linejoin:round;stroke-miterlimit:10;stroke-dasharray:none;stroke-opacity:1" d="m 3159,3630.33 v 4"/><path id="path152" style="fill:none;stroke:#000000;stroke-width:6;stroke-linecap:round;stroke-linejoin:round;stroke-miterlimit:10;stroke-dasharray:none;stroke-opacity:1" d="m 3092,3630.33 v 4"/><path id="path154" style="fill:none;stroke:#000000;stroke-width:6;stroke-linecap:round;stroke-linejoin:round;stroke-miterlimit:10;stroke-dasharray:none;stroke-opacity:1" d="m 3253,3655.33 v 7"/><path id="path156" style="fill:none;stroke:#000000;stroke-width:6;stroke-linecap:round;stroke-linejoin:round;stroke-miterlimit:10;stroke-dasharray:none;stroke-opacity:1" d="M 3253,3662.33 H 2997"/><path id="path158" style="fill:none;stroke:#000000;stroke-width:6;stroke-linecap:round;stroke-linejoin:round;stroke-miterlimit:10;stroke-dasharray:none;stroke-opacity:1" d="m 3591,3511.33 v 108"/><path id="path160" style="fill:none;stroke:#000000;stroke-width:6;stroke-linecap:round;stroke-linejoin:round;stroke-miterlimit:10;stroke-dasharray:none;stroke-opacity:1" d="m 3591,3638.33 v 19"/><path id="path162" style="fill:none;stroke:#000000;stroke-width:6;stroke-linecap:round;stroke-linejoin:round;stroke-miterlimit:10;stroke-dasharray:none;stroke-opacity:1" d="m 3591,3677.33 v 107"/><path id="path164" style="fill:none;stroke:#000000;stroke-width:6;stroke-linecap:round;stroke-linejoin:round;stroke-miterlimit:10;stroke-dasharray:none;stroke-opacity:1" d="m 3585,3629.33 v 3"/><path id="path166" style="fill:none;stroke:#000000;stroke-width:6;stroke-linecap:round;stroke-linejoin:round;stroke-miterlimit:10;stroke-dasharray:none;stroke-opacity:1" d="m 3598,3629.33 v 3"/><path id="path168" style="fill:none;stroke:#000000;stroke-width:6;stroke-linecap:round;stroke-linejoin:round;stroke-miterlimit:10;stroke-dasharray:none;stroke-opacity:1" d="m 3719,3655.33 v 7"/><path id="path170" style="fill:none;stroke:#000000;stroke-width:6;stroke-linecap:round;stroke-linejoin:round;stroke-miterlimit:10;stroke-dasharray:none;stroke-opacity:1" d="m 3463,3656.33 11,-5 11,-4 11,-4 11,-3 11,-3 11,-2 11,-2 11,-2 12,-1 11,-1 h 35 l 11,1 11,1 12,2 11,2 11,2 11,3 11,3 11,4 11,4 10,4"/><path id="path172" style="fill:none;stroke:#000000;stroke-width:6;stroke-linecap:round;stroke-linejoin:round;stroke-miterlimit:10;stroke-dasharray:none;stroke-opacity:1" d="m 3558,3634.33 4,-1 h 5"/><path id="path174" style="fill:none;stroke:#000000;stroke-width:6;stroke-linecap:round;stroke-linejoin:round;stroke-miterlimit:10;stroke-dasharray:none;stroke-opacity:1" d="m 3572,3633.33 5,-1 h 5"/><path id="path176" style="fill:none;stroke:#000000;stroke-width:6;stroke-linecap:round;stroke-linejoin:round;stroke-miterlimit:10;stroke-dasharray:none;stroke-opacity:1" d="m 3587,3632.33 h 9"/><path id="path178" style="fill:none;stroke:#000000;stroke-width:6;stroke-linecap:round;stroke-linejoin:round;stroke-miterlimit:10;stroke-dasharray:none;stroke-opacity:1" d="m 3601,3632.33 h 5 l 5,1"/><path id="path180" style="fill:none;stroke:#000000;stroke-width:6;stroke-linecap:round;stroke-linejoin:round;stroke-miterlimit:10;stroke-dasharray:none;stroke-opacity:1" d="m 3616,3633.33 h 4 l 5,1"/><path id="path182" style="fill:none;stroke:#000000;stroke-width:6;stroke-linecap:round;stroke-linejoin:round;stroke-miterlimit:10;stroke-dasharray:none;stroke-opacity:1" d="m 3558,3630.33 v 4"/><path id="path184" style="fill:none;stroke:#000000;stroke-width:6;stroke-linecap:round;stroke-linejoin:round;stroke-miterlimit:10;stroke-dasharray:none;stroke-opacity:1" d="m 3625,3630.33 v 4"/><path id="path186" style="fill:none;stroke:#000000;stroke-width:6;stroke-linecap:round;stroke-linejoin:round;stroke-miterlimit:10;stroke-dasharray:none;stroke-opacity:1" d="m 3464,3655.33 v 7"/><path id="path188" style="fill:none;stroke:#000000;stroke-width:6;stroke-linecap:round;stroke-linejoin:round;stroke-miterlimit:10;stroke-dasharray:none;stroke-opacity:1" d="m 3464,3662.33 h 255"/></g></g></svg>