<?xml version="1.0" encoding="UTF-8" standalone="no"?><svg xmlns:dc="http://purl.org/dc/elements/1.1/" xmlns:cc="http://creativecommons.org/ns#" xmlns:rdf="http://www.w3.org/1999/02/22-rdf-syntax-ns#" xmlns:svg="http://www.w3.org/2000/svg" xmlns="http://www.w3.org/2000/svg" xml:space="preserve" id="svg2" version="1.1" viewBox="0 0 793.70667 1122.52"><metadata id="metadata8"><rdf:RDF><cc:Work rdf:about=""><dc:format>image/svg+xml</dc:format><dc:type rdf:resource="http://purl.org/dc/dcmitype/StillImage"/></cc:Work></rdf:RDF></metadata><defs id="defs6"/><g transform="matrix(1.3333333,0,0,-1.3333333,0,1122.52)" id="g10"><g transform="scale(0.12)" id="g12"><path id="path14" style="fill:none;stroke:#000000;stroke-width:6;stroke-linecap:round;stroke-linejoin:round;stroke-miterlimit:10;stroke-dasharray:none;stroke-opacity:1" d="m 1126,5789.33 4,2 2,6 v 4 l -2,6 -6,4 -10,2 h -10 l -8,-2 -4,-4 -2,-6 v -2 l 2,-6 4,-4 6,-2 h 2 l 6,2 4,4 2,6 v 2 l -2,6 -4,4 -6,2"/><path id="path16" style="fill:none;stroke:#000000;stroke-width:6;stroke-linecap:round;stroke-linejoin:round;stroke-miterlimit:10;stroke-dasharray:none;stroke-opacity:1" d="m 1132,5769.33 v -21 l -16,11 v -5 l -2,-4 -2,-2 -6,-2 h -4 l -6,2 -4,4 -2,5 v 6 l 2,6 2,2 4,2"/><path id="path18" style="fill:none;stroke:#000000;stroke-width:6;stroke-linecap:round;stroke-linejoin:round;stroke-miterlimit:10;stroke-dasharray:none;stroke-opacity:1" d="m 1124,5734.33 2,-4 6,-6 h -42"/><path id="path20" style="fill:none;stroke:#000000;stroke-width:6;stroke-linecap:round;stroke-linejoin:round;stroke-miterlimit:10;stroke-dasharray:none;stroke-opacity:1" d="m 1132,5682.33 -28,20 v -30"/><path id="path22" style="fill:none;stroke:#000000;stroke-width:6;stroke-linecap:round;stroke-linejoin:round;stroke-miterlimit:10;stroke-dasharray:none;stroke-opacity:1" d="m 1132,5682.33 h -42"/><path id="path24" style="fill:none;stroke:#000000;stroke-width:6;stroke-linecap:round;stroke-linejoin:round;stroke-miterlimit:10;stroke-dasharray:none;stroke-opacity:1" d="m 1122,5622.33 h 2 l 4,-2 2,-2 2,-4 v -8 l -2,-4 -2,-2 -4,-2 h -4 l -4,2 -6,4 -20,20 v -28"/><path id="path26" style="fill:none;stroke:#000000;stroke-width:6;stroke-linecap:round;stroke-linejoin:round;stroke-miterlimit:10;stroke-dasharray:none;stroke-opacity:1" d="m 1132,5584.33 v -28 l -42,28 v -28"/><path id="path28" style="fill:none;stroke:#000000;stroke-width:6;stroke-linecap:round;stroke-linejoin:round;stroke-miterlimit:10;stroke-dasharray:none;stroke-opacity:1" d="m 1122,5476.33 4,2 4,4 2,4 v 8 l -2,4 -4,4 -4,2 -6,2 h -10 l -6,-2 -4,-2 -4,-4 -2,-4 v -8 l 2,-4 4,-4 4,-2"/><path id="path30" style="fill:none;stroke:#000000;stroke-width:6;stroke-linecap:round;stroke-linejoin:round;stroke-miterlimit:10;stroke-dasharray:none;stroke-opacity:1" d="m 1132,5460.33 v -22 l -16,12 v -6 l -2,-4 -2,-2 -6,-2 h -4 l -6,2 -4,4 -2,6 v 6 l 2,6 2,2 4,2"/></g></g></svg>